<?xml version="1.0" encoding="utf-8"?>
<!-- Generator: Adobe Illustrator 16.0.0, SVG Export Plug-In . SVG Version: 6.00 Build 0)  -->
<!DOCTYPE svg PUBLIC "-//W3C//DTD SVG 1.1//EN" "http://www.w3.org/Graphics/SVG/1.1/DTD/svg11.dtd">
<svg version="1.1" id="Layer_1" xmlns="http://www.w3.org/2000/svg" xmlns:xlink="http://www.w3.org/1999/xlink" x="0px" y="0px"
	 width="178px" height="56px" viewBox="0 0 178 56" enable-background="new 0 0 178 56" xml:space="preserve">
<g>
	<g>
		<path fill="#FFFFFF" d="M2.375,32.916V6.082h4.433v26.834H2.375z"/>
		<path fill="#FFFFFF" d="M10.408,32.916V29.75l7.679-19.861h-7.204V6.082h11.795v3.166l-7.639,19.861h7.639v3.807H10.408z"/>
		<path fill="#FFFFFF" d="M38.864,31.221c-1.188,1.131-2.89,1.695-5.542,1.695h-7.006V6.082h7.045c2.612,0,4.314,0.527,5.462,1.658
			c1.307,1.244,1.781,2.601,1.781,5.502c0,1.923-0.316,3.393-1.623,4.674c-0.396,0.377-0.871,0.717-1.465,0.942
			c0.594,0.264,1.148,0.603,1.544,0.979c1.306,1.281,1.623,2.902,1.623,5.391C40.685,28.394,40.21,29.901,38.864,31.221z
			 M32.966,9.889H30.75v7.273h2.216c2.296,0,3.206-1.093,3.206-3.656C36.172,10.868,35.262,9.889,32.966,9.889z M32.887,20.742
			H30.75v8.367h2.137c2.375,0,3.364-1.055,3.364-4.184C36.251,21.949,35.262,20.742,32.887,20.742z"/>
		<path fill="#FFFFFF" d="M57.028,30.919c-1.147,1.319-2.85,2.299-5.462,2.299c-2.612,0-4.314-0.979-5.462-2.299
			c-1.86-2.148-2.058-5.05-2.058-11.42c0-6.369,0.198-9.271,2.058-11.42c1.148-1.319,2.85-2.299,5.462-2.299
			c2.613,0,4.315,0.979,5.462,2.299c1.899,2.11,2.058,5.051,2.058,11.42C59.086,25.869,58.928,28.809,57.028,30.919z M53.704,10.604
			c-0.396-0.603-1.069-1.018-2.138-1.018c-1.068,0-1.702,0.415-2.098,1.018c-0.831,1.281-0.989,3.995-0.989,8.895
			s0.158,7.613,0.989,8.895c0.396,0.604,1.029,1.019,2.098,1.019c1.069,0,1.742-0.415,2.138-1.019
			c0.831-1.281,0.95-3.995,0.95-8.895S54.535,11.886,53.704,10.604z"/>
		<path fill="#FFFFFF" d="M73.688,32.916l-3.681-11.005h-2.494v11.005H63.08V6.082h7.125c5.146,0,7.203,2.374,7.203,7.914
			c0,3.316-0.712,5.691-3.285,7.011l4.196,11.909H73.688z M70.244,9.889h-2.73v8.216h2.73c2.375,0,2.731-1.884,2.731-4.108
			C72.976,11.773,72.619,9.889,70.244,9.889z"/>
		<path fill="#FFFFFF" d="M81.997,32.916V6.082h4.433v26.834H81.997z"/>
		<path fill="#FFFFFF" d="M97.746,32.916v-3.392l7.046-13.04c0.634-1.131,1.147-2.827,1.147-4.787c0-1.545-0.87-2.336-2.018-2.336
			c-1.148,0-2.099,0.754-2.099,2.299v1.733h-4.195v-1.583c0-2.148,0.634-3.43,1.741-4.447c1.108-1.018,2.85-1.583,4.553-1.583
			c1.701,0,3.205,0.415,4.354,1.433c1.107,0.979,1.86,2.487,1.86,4.635c0,1.961-0.634,4.222-1.544,5.88l-6.373,11.608h7.917v3.58
			H97.746z"/>
		<path fill="#FFFFFF" d="M124.184,31.635c-1.107,1.018-2.73,1.583-4.473,1.583c-1.741,0-3.404-0.565-4.512-1.583
			c-1.108-1.018-1.781-2.299-1.781-4.447V11.811c0-2.148,0.673-3.43,1.781-4.447c1.107-1.018,2.771-1.583,4.512-1.583
			c1.742,0,3.365,0.565,4.473,1.583c1.108,1.018,1.781,2.299,1.781,4.447v15.377C125.965,29.336,125.292,30.617,124.184,31.635z
			 M121.77,11.66c0-1.545-0.91-2.299-2.059-2.299c-1.147,0-2.098,0.754-2.098,2.299v15.678c0,1.546,0.95,2.3,2.098,2.3
			c1.148,0,2.059-0.754,2.059-2.3V11.66z"/>
		<path fill="#FFFFFF" d="M134.63,32.916v-22.16l-4.235,3.09V9.323l4.235-3.241h4.196v26.834H134.63z"/>
		<path fill="#FFFFFF" d="M156.436,31.07c-1.107,1.507-3.008,2.147-5.026,2.147c-2.257,0-3.958-0.791-4.948-2.147
			c-1.068-1.508-1.385-3.053-1.385-6.295c0-2.412,0.436-4.598,1.147-6.332l4.948-12.361h4.354l-4.631,10.854
			c0.475-0.339,1.147-0.452,1.741-0.452c1.465,0,2.811,0.527,3.721,1.658c1.029,1.244,1.425,2.676,1.425,6.633
			C157.781,28.355,157.346,29.826,156.436,31.07z M152.953,20.441c-0.357-0.452-0.911-0.678-1.504-0.678
			c-0.594,0-1.188,0.226-1.545,0.678c-0.594,0.716-0.633,2.148-0.633,4.259s0.039,3.543,0.633,4.259
			c0.357,0.453,0.951,0.679,1.545,0.679c0.593,0,1.146-0.226,1.504-0.679c0.594-0.716,0.633-2.148,0.633-4.259
			S153.547,21.157,152.953,20.441z"/>
	</g>
	
		<rect x="69.586" y="32.515" transform="matrix(0.9972 -0.0748 0.0748 0.9972 -2.7657 9.0154)" fill="#0A223E" width="98.758" height="17.826"/>
	<polygon fill="#C4161C" points="96.564,50.051 96.674,50.043 96.534,49.637 	"/>
	<path fill="#C4161C" d="M79.755,44.456l-0.065-0.104C79.719,44.407,79.741,44.443,79.755,44.456"/>
	<path fill="#C4161C" d="M81.12,38.281c0.055,0.424,0.246,0.611,0.57,0.57l-0.345-0.412l0.205-0.191L81.12,38.281z"/>
	<path fill="#C4161C" d="M75.96,40.941l0.267,0.396l-0.025-0.35C76.186,40.946,76.105,40.93,75.96,40.941"/>
	<path fill="#C4161C" d="M77.291,47.842c0.007,0.117,0.019,0.288,0.035,0.512c0.015,0.227,0.027,0.398,0.035,0.516
		c0.052,0.741,0.191,1.323,0.416,1.744c0.376,0.088,0.758,0.115,1.153,0.083c0.507-0.042,1.106-0.208,1.796-0.499l-0.085-3.2
		c-0.096,0.127-0.163,0.19-0.202,0.194c-0.015-0.015-0.043-0.049-0.086-0.103c-0.044-0.058-0.067-0.106-0.07-0.15
		c-0.001-0.028,0.016-0.06,0.053-0.091l0.236-0.019c-0.036-0.525-0.066-0.829-0.085-0.917c-0.089-0.329-0.276-0.482-0.563-0.459
		c0.286-0.244,0.441-0.629,0.471-1.158c-0.052,0.004-0.13-0.023-0.232-0.081s-0.16-0.085-0.174-0.083
		c-0.038,0.002-0.058,0.039-0.051,0.112l0.32,0.348l-0.075,0.071c-0.196-0.012-0.341-0.081-0.428-0.207l0.231,0.466
		c-0.058-0.054-0.113-0.079-0.163-0.075c-0.041,0.002-0.093,0.057-0.158,0.156c-0.066,0.102-0.118,0.152-0.157,0.155
		c-0.065,0.006-0.135-0.056-0.209-0.181c-0.014-0.027,0-0.088,0.046-0.18c-0.095-0.065-0.195-0.175-0.299-0.326
		c-0.073-0.098-0.188-0.162-0.349-0.192c0.078-0.021,0.198-0.094,0.359-0.217c0.163-0.122,0.284-0.185,0.361-0.192
		c0.093-0.008,0.174,0.043,0.247,0.155c0.041-0.165,0.069-0.248,0.083-0.249c0.041,0.027,0.139,0.039,0.296,0.032
		c0.159-0.007,0.268,0.047,0.328,0.159c-0.005-0.059-0.048-0.125-0.132-0.199c-0.083-0.072-0.128-0.133-0.131-0.176
		s0.02-0.09,0.068-0.137c0.066-0.006,0.121,0.026,0.167,0.097c0.001-0.908,0.005-1.305,0.012-1.188
		c-0.025-0.394-0.136-0.728-0.324-1.007c0.136-0.303,0.192-0.631,0.168-0.979c-0.012-0.174-0.058-0.449-0.136-0.823
		c-0.078-0.375-0.125-0.672-0.141-0.89c-0.04-0.011-0.075-0.017-0.101-0.014c-0.038,0.003-0.056,0.046-0.049,0.124
		c0.005,0.08-0.02,0.131-0.071,0.15c-0.134-0.063-0.323-0.047-0.569,0.045c-0.345,0.102-0.532,0.153-0.56,0.154
		c-0.13,0.012-0.231-0.047-0.308-0.172c-0.107,0.127-0.281,0.199-0.517,0.218c-0.482,0.067-0.759,0.142-0.831,0.222
		c-0.073,0.079-0.107,0.154-0.104,0.229c0.006,0.086,0.056,0.155,0.153,0.206c-0.039,0.018-0.088,0.066-0.149,0.145
		c-0.06,0.077-0.108,0.119-0.147,0.121c0.146,0.223,0.205,0.543,0.175,0.963c-0.029,0.42,0.009,0.743,0.117,0.969l-0.518,0.217
		l0.431-0.035c0.031,0.247,0.064,0.508,0.104,0.783c0.038,0.275,0.142,0.465,0.306,0.566l-0.215,0.018
		c-0.023,0.252-0.001,0.749,0.063,1.49c0.044,0.626,0.02,1.118-0.074,1.479C77.176,46.87,77.253,47.305,77.291,47.842
		 M79.246,45.617c0.049-0.032,0.078-0.072,0.089-0.116l-0.05-0.15l-0.021-0.019l0.018-0.025l-0.03-0.15l0.117-0.01l-0.087,0.16
		l0.003,0.044l0.429,0.208L79.246,45.617c-0.038,0.033-0.156,0.058-0.351,0.073L79.246,45.617z M78.673,43.93
		c-0.038,0.018-0.054,0.099-0.041,0.243l-0.157,0.013c0.049-0.047,0.073-0.093,0.07-0.137c-0.003-0.027-0.055-0.061-0.156-0.097
		c-0.101-0.036-0.153-0.089-0.159-0.163L78.673,43.93z M77.247,40.727c0.013-0.014,0.067-0.079,0.165-0.189
		c0.06-0.076,0.13-0.104,0.212-0.081l-0.122,0.534L77.247,40.727z"/>
	<polygon fill="#C4161C" points="78.827,37.371 78.942,37.624 78.925,37.362 	"/>
	<polygon fill="#C4161C" points="80.519,37.607 80.532,37.781 80.688,37.769 80.755,37.588 	"/>
	<path fill="#C4161C" d="M92.604,48.213c-0.204,0.016-0.32,0.004-0.354-0.039l0.026,0.349L92.604,48.213z"/>
	<path fill="#C4161C" d="M92.659,50.689c0.067-0.048,0.135-0.075,0.191-0.08l-0.073-0.104L92.659,50.689z"/>
	<polygon fill="#C4161C" points="91.804,46.91 92.389,46.803 92.068,46.65 	"/>
	<path fill="#C4161C" d="M90.577,48.717c0.029,0.012,0.061,0.016,0.089,0.015c0.058-0.005,0.124-0.054,0.199-0.147
		c0.071-0.094,0.116-0.14,0.131-0.141c-0.247,0.019-0.342,0.018-0.286-0.002C90.567,48.481,90.522,48.574,90.577,48.717"/>
	<path fill="#C4161C" d="M90.001,51.57c0.09,0.01,0.165-0.049,0.229-0.17c0.01-0.045,0.021-0.098,0.031-0.156l-0.506,0.279
		C89.787,51.564,89.87,51.58,90.001,51.57"/>
	<path fill="#C4161C" d="M89.821,50.047l0.431-0.1c-0.146,0.012-0.234-0.018-0.271-0.088L89.821,50.047z"/>
	<path fill="#C4161C" d="M90.555,39.34c-0.064-0.068-0.137-0.133-0.214-0.193c-0.078-0.06-0.152-0.072-0.224-0.037
		c-0.092-0.272-0.263-0.486-0.508-0.644c-0.094-0.065-0.345-0.187-0.752-0.36l-2.126,0.051c-0.159,0.041-0.51,0.073-1.049,0.1
		c-0.421,0.018-0.753,0.102-0.99,0.25c-0.279-0.008-0.505,0.127-0.672,0.402c-0.225,0.354-0.429,0.566-0.613,0.64
		c-0.052,0.091-0.136,0.277-0.252,0.556c-0.12,0.28-0.226,0.477-0.318,0.586l0.055,0.742c0.06,0.038,0.182,0.16,0.357,0.367
		c0.13,0.166,0.252,0.245,0.369,0.236c0.059-0.004,0.115-0.022,0.17-0.056c0.007,0.073-0.007,0.153-0.035,0.243
		c-0.031,0.089-0.044,0.15-0.042,0.18c0.043-0.004,0.104-0.033,0.18-0.092c0.076-0.057,0.13-0.086,0.158-0.088
		c0.057-0.004,0.104,0.021,0.137,0.076c-0.105,0.141-0.201,0.229-0.286,0.264c0.077,0.053,0.119,0.116,0.125,0.188
		c0.011,0.161-0.072,0.329-0.249,0.503c-0.135-0.035-0.181-0.107-0.139-0.221c0.044-0.113,0.02-0.195-0.071-0.248
		c-0.075-0.008-0.128,0.021-0.159,0.09c-0.033,0.068-0.06,0.132-0.084,0.192c0.152,0.093,0.236,0.231,0.25,0.421
		c0.007,0.072,0.004,0.176-0.009,0.309c-0.012,0.133-0.016,0.228-0.012,0.285c0.005,0.059,0.015,0.109,0.032,0.152l0.163-0.188
		c0.097,0.125,0.33,0.204,0.698,0.233c0.309,0.02,0.524,0.158,0.646,0.413l0.824,0.136c0.324,0.049,0.566,0.141,0.723,0.275
		c0.111-0.083,0.21-0.127,0.298-0.134c0.115-0.009,0.241,0.097,0.374,0.313c0.135,0.217,0.266,0.32,0.397,0.311
		c0.071-0.005,0.158-0.033,0.256-0.086c0.364,0.354,0.521,0.598,0.473,0.733c-0.054,0.063-0.075,0.146-0.067,0.249
		c0.003,0.041,0.018,0.105,0.048,0.192c0.028,0.085,0.042,0.151,0.046,0.193c0.01,0.118-0.034,0.216-0.131,0.296
		c-0.077-0.039-0.102-0.094-0.08-0.17l-0.348,0.026c-0.58,0.103-0.874,0.352-0.89,0.749c-0.17-0.104-0.233-0.203-0.198-0.293
		c-0.083,0.05-0.154,0.076-0.21,0.082c-0.12,0.008-0.266-0.065-0.437-0.222c-0.173-0.154-0.323-0.228-0.455-0.218
		c-0.088,0.008-0.188,0.035-0.302,0.089c-0.521-0.722-0.804-1.169-0.846-1.343c-0.078-0.038-0.174-0.146-0.289-0.33
		c-0.099-0.137-0.214-0.195-0.342-0.172c-0.938,0.98-1.487,1.569-1.647,1.772l0.617,1.468l0.231-0.104l0.207,0.401
		c0.89,0.359,1.466,0.526,1.729,0.506c0.16-0.012,0.304-0.057,0.429-0.141c-0.01,0.061-0.015,0.104-0.011,0.133
		c0.005,0.088,0.088,0.153,0.244,0.201c0.158,0.046,0.239,0.129,0.249,0.246c0.732,0.002,1.362-0.018,1.885-0.056
		c0.524-0.04,1.163-0.116,1.914-0.232c-0.254-0.463-0.438-0.771-0.551-0.925c0.07-0.033,0.144-0.029,0.221,0.018
		c0.076,0.045,0.146,0.087,0.208,0.127l-0.014-0.176c0.155-0.085,0.291-0.117,0.409-0.096l-0.096-0.103
		c0.075-0.167,0.155-0.338,0.236-0.513c0.081-0.173,0.175-0.264,0.276-0.271c0.059-0.004,0.125,0.012,0.201,0.05l-0.188-0.161
		c0.098-0.065,0.204-0.104,0.32-0.113c0.263-0.02,0.4,0.087,0.42,0.32c0.004,0.059-0.006,0.117-0.028,0.178
		c0.271-0.254,0.387-0.672,0.344-1.254c-0.018-0.233-0.064-0.443-0.138-0.627c0.062-0.167,0.089-0.328,0.075-0.49
		c-0.014-0.188-0.111-0.416-0.294-0.68c-0.241-0.304-0.39-0.521-0.444-0.647l-0.238,0.017c-0.116,0.01-0.228-0.037-0.33-0.141
		c-0.103-0.102-0.156-0.188-0.161-0.261c-0.004-0.03,0.002-0.053,0.014-0.068c-0.102-0.007-0.252-0.079-0.455-0.218
		c-0.199-0.138-0.365-0.203-0.497-0.191c-0.073,0.004-0.149,0.031-0.236,0.082c-0.484-0.242-0.845-0.457-1.078-0.645l-0.546,0.041
		c-0.142-0.121-0.384-0.249-0.723-0.385c-0.339-0.135-0.572-0.264-0.698-0.387c-0.205-0.189-0.299-0.46-0.281-0.814
		c0.163-0.377,0.451-0.627,0.868-0.744c0.359-0.072,0.718-0.15,1.078-0.235l0.197,0.271c0.388,0.103,0.775,0.381,1.161,0.836
		c0.146,0.18,0.275,0.264,0.394,0.256c0.131-0.01,0.272-0.164,0.426-0.461c0.153-0.298,0.261-0.467,0.323-0.507
		c0.063-0.043,0.096-0.157,0.096-0.35c0-0.188,0.043-0.288,0.132-0.294c0.044-0.004,0.101,0.006,0.177,0.031
		c0.069-0.064,0.102-0.125,0.097-0.184c-0.004-0.059-0.037-0.128-0.095-0.213c-0.056-0.084-0.085-0.141-0.087-0.167
		C90.272,39.396,90.363,39.354,90.555,39.34 M83.146,41.609l0.159-0.211c0,0.03,0.03,0.095,0.08,0.191L83.146,41.609z
		 M91.155,45.005c-0.001-0.015-0.019,0.054-0.052,0.2l-0.303-0.24C91.019,44.949,91.135,44.961,91.155,45.005 M90.638,46.891
		l0.037-0.379c0.12,0.035,0.182,0.084,0.186,0.141C90.862,46.667,90.789,46.746,90.638,46.891l-0.008,0.195
		C90.582,47.033,90.585,46.967,90.638,46.891 M90.346,44.495c0.072-0.034,0.133-0.011,0.182,0.071l0.01,0.133l-0.265-0.045
		C90.252,44.583,90.276,44.529,90.346,44.495 M90.064,45.701c0.131-0.038,0.225-0.023,0.291,0.045
		c-0.106,0.17-0.239,0.238-0.403,0.207C89.9,45.824,89.938,45.741,90.064,45.701 M89.82,45.369
		c-0.441-0.041-0.684-0.131-0.725-0.274L89.82,45.369z M88.833,45.684c0.085,0.156,0.119,0.301,0.099,0.434l-0.327,0.025
		L88.833,45.684z"/>
	<path fill="#C4161C" d="M83.254,43.053c0.02,0.042,0.041,0.047,0.068,0.014c-0.016,0.002-0.023-0.004-0.023-0.019
		C83.284,43.05,83.269,43.051,83.254,43.053"/>
	<path fill="#C4161C" d="M88.262,50.955c-0.016-0.248-0.049-0.385-0.096-0.41l-0.143,0.428L88.262,50.955z"/>
	<path fill="#C4161C" d="M83.128,42.818c0.071-0.006,0.134-0.038,0.188-0.102c0.055-0.063,0.102-0.123,0.142-0.187
		c-0.004-0.029-0.02-0.042-0.048-0.04c-0.014,0.001-0.063,0.037-0.146,0.109c-0.082,0.072-0.152,0.11-0.211,0.113L83.128,42.818z"/>
	<polygon fill="#C4161C" points="83.076,42.141 83.178,42.025 82.924,41.867 	"/>
	
		<rect x="88.373" y="49.972" transform="matrix(-0.9967 0.081 -0.081 -0.9967 180.7518 92.7836)" fill="#C4161C" width="0.241" height="0.174"/>
	<path fill="#C4161C" d="M87.704,46.736c-0.114,0.023-0.236,0.053-0.365,0.093c-0.13,0.04-0.204,0.104-0.228,0.194l0.604-0.156
		L87.704,46.736z"/>
	<path fill="#C4161C" d="M100.456,39.518v0.006C100.468,39.52,100.465,39.519,100.456,39.518"/>
	<path fill="#C4161C" d="M98.06,39.814c0.187-0.057,0.33-0.091,0.434-0.099c0.232-0.018,0.407,0.073,0.524,0.269
		c0.069-0.253,0.257-0.393,0.561-0.414c0.544-0.042,0.832-0.06,0.878-0.053l0.025-1.971l-0.268-0.331
		c-0.949,0.028-2.405,0.136-4.367,0.329c-1.831,0.168-2.833,0.261-3.897,0.281c-0.354-0.004-0.53,0.139-0.531,0.422
		c0.001,0.283,0.002,0.555,0.008,0.816c0.015,0.026,0.068,0.248,0.16,0.662c0.065,0.299,0.247,0.488,0.546,0.568
		c0.219-0.018,0.553-0.049,1.003-0.098c0.407-0.045,0.72-0.069,0.939-0.072c0.337-0.01,0.204,0.019,0.502,0.084
		c0.094,0.284,0.162,0.703,0.203,1.255c0.03,0.597,0.086,1.024,0.164,1.28c0.058,0.594,0.1,1.425,0.12,2.49
		c0.025,1.136,0.057,1.924,0.088,2.36c0.046,0.595,0.114,1.106,0.205,1.539l2.321-0.065c0.288-0.283,0.413-0.68,0.373-1.188
		c-0.014-0.188-0.052-0.418-0.116-0.689c-0.085-0.329-0.128-0.516-0.13-0.559c0.087-0.196,0.125-0.388,0.109-0.576
		c-0.012-0.175-0.103-0.411-0.274-0.713c-0.168-0.301-0.259-0.545-0.272-0.733c-0.01-0.115-0.003-0.226,0.021-0.33l-0.155,0.297
		c-0.08-0.081-0.135-0.12-0.161-0.118c-0.019-0.014-0.051,0.031-0.103,0.139c-0.127-0.15-0.191-0.241-0.194-0.271l-0.748-0.011
		l-0.006-0.064c0.116-0.023,0.28-0.098,0.491-0.225c0.209-0.124,0.363-0.191,0.467-0.199c0.132-0.01,0.26,0.039,0.385,0.146
		l-0.062,0.07l0.398-0.271c0.036-0.279,0.042-0.619,0.011-1.012c-0.011-0.146-0.037-0.377-0.073-0.696
		c-0.04-0.318-0.067-0.559-0.076-0.72c-0.044-0.566-0.014-1.045,0.089-1.434C97.738,39.905,97.875,39.873,98.06,39.814"/>
	<polygon fill="#C4161C" points="100.536,41.475 100.506,41.059 100.395,41.067 	"/>
	<path fill="#C4161C" d="M111.669,44.245c0.091,0.052,0.182,0.075,0.269,0.067c0.087-0.007,0.204-0.057,0.351-0.146
		c0.146-0.091,0.256-0.148,0.329-0.167c0.203,0.174,0.299,0.366,0.285,0.571c-0.114-0.137-0.277-0.17-0.492-0.096
		c-0.213,0.075-0.375,0.072-0.483-0.009c0.075,0.216,0.149,0.433,0.225,0.655c0.074,0.223,0.263,0.307,0.569,0.254
		c-0.04,0.061-0.058,0.121-0.051,0.18c0.006,0.102,0.101,0.236,0.281,0.406c0.18,0.17,0.269,0.327,0.265,0.475
		c0.271,0.082,0.492,0.401,0.666,0.959c0.14,0.488,0.433,0.7,0.883,0.639c0.403-0.074,0.816-0.15,1.234-0.227
		c0.493-0.08,0.83-0.244,1.019-0.493l-0.203-3.429c0.014,0.036,0.067,0.063,0.172,0.082l-0.02-0.262
		c-0.1,0.059-0.146,0.107-0.155,0.149l-0.072-1.212c0.042-0.006,0.089-0.035,0.14-0.096c-0.02-0.008-0.073-0.055-0.153-0.133
		l-0.126-2.121c0.004-0.131,0-0.271-0.01-0.416c-0.016-0.189-0.059-0.482-0.132-0.88c-0.073-0.396-0.118-0.696-0.134-0.9
		c-0.022-0.307-0.007-0.585,0.047-0.839c-0.029,0.004-0.094,0.008-0.196,0.016c-0.073,0.006-0.127-0.02-0.161-0.076l0.229-0.194
		c-0.018-0.041-0.027-0.173-0.029-0.392c-0.014-0.176-0.045-0.297-0.094-0.365l-2.556,0.191c0.106,2.569,0.214,4.486,0.322,5.751
		c-0.049,0.121-0.132,0.185-0.249,0.194c-0.059,0.005-0.154-0.012-0.289-0.056c-0.136-0.04-0.232-0.066-0.291-0.077
		c0.141-0.083,0.256-0.113,0.344-0.091c-0.515-0.813-0.904-1.417-1.168-1.808c-0.107-0.052-0.234-0.203-0.387-0.456
		c-0.149-0.254-0.294-0.428-0.434-0.519l0.122-0.142c-0.034-0.042-0.13-0.114-0.292-0.221c-0.161-0.104-0.24-0.216-0.233-0.333
		c-0.343-0.27-0.601-0.684-0.774-1.245c-0.358-0.486-1.028-0.723-2.01-0.708l0.022,0.284c-0.132-0.005-0.227,0.003-0.284,0.021
		l0.377,0.324c-0.055,0.063-0.125,0.098-0.212,0.103c-0.103,0.009-0.243-0.03-0.427-0.12c-0.244-0.115-0.382-0.176-0.409-0.189
		l0.011,0.176c-0.151,0.099-0.287,0.146-0.405,0.14l0.164,2.185c-0.166,0.129-0.24,0.279-0.229,0.455
		c0.009,0.117,0.075,0.295,0.193,0.536c0.12,0.239,0.171,0.418,0.15,0.537l-0.065,0.004c-0.027-0.158,0.007,0.373,0.098,1.597
		c0.034,0.625,0.159,1.139,0.378,1.532c-0.159,0.406-0.204,0.979-0.132,1.722c0.109,1.267,0.159,1.85,0.152,1.746l0.396,0.586
		c0.085-0.021,0.174-0.037,0.259-0.043c0.117-0.008,0.299-0.003,0.541,0.015c0.242,0.019,0.423,0.024,0.538,0.016
		c0.379-0.028,0.674-0.205,0.884-0.528c-0.016-0.205-0.051-0.983-0.111-2.342c-0.027-0.965-0.109-1.786-0.251-2.464l0.212-0.675
		c0.188-0.042,0.305,0.023,0.345,0.193c0.062,0.23,0.139,0.371,0.231,0.422c0.15,0.064,0.306,0.271,0.464,0.625
		C111.272,43.939,111.458,44.16,111.669,44.245 M114.943,44.855c0.092,0.066,0.162,0.098,0.204,0.094
		c0.073-0.006,0.12-0.066,0.14-0.186l-0.252-0.156l0.506,0.027c-0.156,0.261-0.313,0.396-0.474,0.409
		c-0.011,0.001-0.014,0.008-0.018,0.015C114.969,44.936,114.896,44.822,114.943,44.855 M114.477,44.781
		c-0.148-0.018-0.271,0.108-0.367,0.379c0.016,0.015,0.02,0.051,0.009,0.11c-0.033-0.028-0.034-0.065-0.009-0.11
		c-0.033-0.041-0.056-0.061-0.07-0.061c-0.031-0.012-0.105,0.053-0.227,0.193l-0.188-0.162c0.055-0.034,0.156-0.107,0.3-0.221
		c0.146-0.113,0.263-0.174,0.35-0.18C114.334,44.727,114.399,44.742,114.477,44.781 M113.997,44.246
		c0.024-0.061,0.073-0.088,0.146-0.078c-0.039,0.049-0.085,0.08-0.134,0.1c-0.05,0.018-0.083,0.033-0.094,0.049l-0.637-0.258
		C113.713,44.187,113.953,44.249,113.997,44.246 M111.267,39.773l-0.188-0.163l0.141-0.185l0.097,0.124
		C111.351,39.635,111.336,39.708,111.267,39.773"/>
	<path fill="#C4161C" d="M118.338,40.328c0.002,0.03,0.073,0.063,0.215,0.095c0.143,0.032,0.223,0.083,0.243,0.156
		c-0.105,0.157-0.156,0.274-0.15,0.364l0.263-0.614l-0.492-0.138C118.362,40.255,118.336,40.3,118.338,40.328"/>
	<path fill="#C4161C" d="M117.914,43.173c0.096,0.095,0.223,0.136,0.382,0.124C118.215,43.172,118.088,43.129,117.914,43.173"/>
	<path fill="#C4161C" d="M119.595,47.109c-0.053-0.113-0.219-0.16-0.494-0.139l0.507,0.313L119.595,47.109z"/>
	<path fill="#C4161C" d="M117.649,42.555l0.138-0.186l-0.419-0.033l0.188,0.16l-0.304,0.33c0.008,0.307,0.108,0.453,0.297,0.439
		c-0.015,0,0.106-0.031,0.365-0.093c-0.046-0.042-0.071-0.083-0.074-0.126l0.161-0.168L117.649,42.555z"/>
	<path fill="#C4161C" d="M118.858,45.21l-0.066,0.005l0.024,0.327C118.859,45.525,118.873,45.414,118.858,45.21"/>
	<polygon fill="#C4161C" points="122.709,40.639 122.469,40.654 122.725,40.834 	"/>
	<polygon fill="#C4161C" points="124.545,44.607 124.484,44.678 124.792,44.654 	"/>
	<path fill="#C4161C" d="M117.156,41.559l0.187,0.426l0.335-0.201l-0.105-0.256c-0.021,0.106-0.078,0.162-0.164,0.168
		C117.291,41.703,117.207,41.658,117.156,41.559"/>
	<path fill="#C4161C" d="M117.471,41.361c0.233-0.02,0.348-0.051,0.346-0.094l-0.268-0.045L117.471,41.361z"/>
	<polygon fill="#C4161C" points="117.85,39.376 117.701,39.739 117.941,39.722 	"/>
	<path fill="#C4161C" d="M119.188,45.492c-0.075,0.006-0.115,0.046-0.125,0.119l0.24-0.02
		C119.285,45.521,119.246,45.489,119.188,45.492"/>
	<path fill="#C4161C" d="M119.344,46.404c-0.005-0.043-0.065-0.084-0.184-0.118c-0.164-0.031-0.261-0.055-0.292-0.065l0.382,0.387
		C119.314,46.53,119.348,46.463,119.344,46.404"/>
	<path fill="#C4161C" d="M119.007,39.29l-0.201,0.542c0.143-0.055,0.265,0.023,0.369,0.236c0.104,0.212,0.22,0.305,0.35,0.281
		l-0.301,0.374c-0.015,0-0.061-0.04-0.14-0.123c-0.048-0.04-0.1-0.05-0.159-0.032c0.033,0.029,0.051,0.063,0.055,0.107
		c0.001,0.043-0.013,0.1-0.044,0.168s-0.045,0.117-0.043,0.146c0.004,0.059,0.065,0.098,0.185,0.116l-0.229,0.149
		c0.173,0.148,0.262,0.295,0.274,0.442c0.005,0.087-0.024,0.177-0.089,0.269l-0.066,0.006l0.154,1.153
		c0.474,0.096,0.73,0.003,0.767-0.278l0.023,0.307c0.027,0.158,0.014,0.268-0.041,0.333c-0.103-0.022-0.146-0.078-0.122-0.168
		l-0.438,0.033l0.305,0.526c-0.027,0.031-0.063,0.05-0.106,0.052c-0.057,0.004-0.149-0.032-0.271-0.111
		c-0.124-0.077-0.215-0.116-0.272-0.111c-0.074,0.006-0.142,0.049-0.211,0.127c0.142,0.12,0.295,0.247,0.459,0.382
		c0.163,0.135,0.264,0.271,0.305,0.416l-0.497,0.389l0.401-0.206c0.018,0.044,0.061,0.118,0.127,0.221
		c0.066,0.105,0.102,0.194,0.107,0.267c0.005,0.061-0.02,0.121-0.074,0.184c0.158,0.162,0.295,0.24,0.412,0.232
		c0.073-0.006,0.13-0.041,0.168-0.103c0.238,0.041,0.364,0.163,0.381,0.368c0.004,0.072-0.013,0.139-0.053,0.201
		c0.058-0.005,0.127,0.033,0.207,0.116s0.135,0.122,0.165,0.12c0.042-0.004,0.089-0.038,0.144-0.1
		c0.106,0.037,0.16,0.084,0.166,0.141c0,0.03-0.014,0.081-0.044,0.157c-0.029,0.076-0.046,0.136-0.042,0.179
		c0.003,0.03,0.013,0.058,0.028,0.085c0.689,0.009,1.274,0.205,1.757,0.593c0.234-0.018,0.458-0.041,0.678-0.072
		c0.306-0.022,0.451-0.135,0.435-0.34c-0.004-0.059-0.024-0.129-0.06-0.215c0.111-0.082,0.202-0.125,0.275-0.131
		s0.163,0.025,0.271,0.09c-0.07,0.064-0.098,0.152-0.09,0.271c0.02,0.247,0.027,0.342,0.021,0.282l0.284-0.021
		c0.028-0.015,0.254-0.033,0.677-0.051c0.307-0.007,0.458-0.143,0.455-0.405l0.114,0.077c0.841-0.296,1.645-1.008,2.408-2.134
		c0.039-0.062,0.042-0.23,0.007-0.507c-0.033-0.23,0.046-0.384,0.229-0.457c-0.111-1.455-0.154-2.527-0.132-3.218
		c-0.143-0.137-0.219-0.277-0.229-0.422c-0.009-0.116,0.047-0.276,0.172-0.475c0.124-0.2,0.181-0.357,0.173-0.475
		c-0.011-0.146-0.095-0.294-0.253-0.442c-0.105-0.254-0.223-0.51-0.342-0.764c-0.159-0.34-0.398-0.506-0.719-0.494
		c0.097-0.067,0.153-0.094,0.168-0.08c0.029-0.41-0.209-0.752-0.713-1.021c-0.64-0.334-1.011-0.576-1.109-0.73
		c-0.028,0.002-0.393,0.021-1.092,0.061c-0.439,0.018-0.784,0.11-1.035,0.275c-0.16-0.179-0.363-0.259-0.61-0.24
		c-0.088,0.006-0.217,0.035-0.39,0.084c-0.174,0.05-0.303,0.078-0.389,0.084c-0.19,0.015-0.354-0.031-0.494-0.139
		c-0.375,0.248-0.761,0.49-1.153,0.725c-0.447,0.311-0.755,0.663-0.932,1.057c-0.04,0.049-0.058,0.116-0.051,0.203
		c0.009,0.102,0.017,0.204,0.023,0.307c-0.004,0.131-0.059,0.201-0.16,0.209c-0.059,0.003-0.117,0.001-0.176-0.01
		c-0.024,0.047-0.036,0.092-0.033,0.135c0.002,0.045,0.047,0.106,0.136,0.188c0.085,0.081,0.126,0.166,0.116,0.254l-0.78,0.146
		L119.007,39.29z M121.283,45.05l0.032,0.129c0.017,0.027,0.028,0.085,0.035,0.173l-0.035-0.173
		c-0.003-0.028-0.019-0.058-0.05-0.084C121.279,45.078,121.286,45.064,121.283,45.05l-0.034-0.196l0.326-0.022
		c0.022,0.114,0.021,0.183-0.007,0.196l-0.133-0.011C121.375,44.992,121.325,45.001,121.283,45.05 M121.696,45.566
		c-0.018-0.043-0.099-0.058-0.246-0.047c0.107-0.153,0.219-0.221,0.338-0.2C121.723,45.426,121.691,45.509,121.696,45.566
		 M123.195,45.346c-0.052,0.09-0.099,0.14-0.143,0.143c-0.045,0.003-0.096-0.023-0.16-0.076c0.059-0.18,0.222-0.251,0.49-0.213
		C123.309,45.205,123.247,45.254,123.195,45.346 M125.18,36.52c0.089-0.064,0.155-0.099,0.199-0.103
		c0.073-0.005,0.134,0.019,0.182,0.073c-0.015,0.002-0.07,0.035-0.169,0.101c-0.096,0.066-0.182,0.101-0.255,0.106
		c-0.057,0.006-0.11-0.02-0.158-0.075C125.022,36.619,125.089,36.584,125.18,36.52 M121.666,39.617l0.195-0.016
		c0.006,0.058,0.04,0.107,0.101,0.146c0.059-0.385,0.087-0.673,0.089-0.863c0.045,0.013,0.09,0.016,0.133,0.013
		c0.101-0.008,0.205-0.086,0.313-0.231c0.104-0.147,0.178-0.236,0.222-0.27l-0.128-0.233l0.174-0.013l-0.052,0.181
		c0.075,0.023,0.135,0.033,0.178,0.03c0.131-0.011,0.242-0.132,0.337-0.365c0.092-0.234,0.187-0.369,0.285-0.406l0.204,0.665
		c0.015-0.001,0.307,0.08,0.876,0.243c0.299,0.094,0.488,0.263,0.565,0.506l0.345,0.215l0.247,4.441
		c-0.258,0.092-0.453,0.35-0.591,0.768c-0.136,0.424-0.306,0.674-0.502,0.764c0.013-0.015-0.013-0.072-0.079-0.171
		c-0.176,0.015-0.309,0.083-0.402,0.207s-0.235,0.187-0.425,0.185c-0.086-0.153-0.17-0.309-0.256-0.465
		c-0.147-0.221-0.311-0.355-0.49-0.401l-0.161,0.19c-0.072-0.187-0.139-0.275-0.197-0.273c-0.028,0.003-0.079,0.059-0.152,0.166
		c-0.071,0.108-0.129,0.164-0.174,0.168c-0.057,0.003-0.114-0.037-0.161-0.121c0.011-0.029,0.07-0.061,0.178-0.09
		c0.108-0.031,0.15-0.089,0.13-0.176c-0.033-0.055-0.115-0.078-0.245-0.068l0.112-0.249c0.052-0.093,0.06-0.173,0.024-0.245
		c-0.248-0.186-0.393-0.556-0.435-1.109c-0.007-0.086-0.015-0.207-0.027-0.36c-0.011-0.151-0.019-0.265-0.024-0.337
		c-0.019-0.232-0.06-0.392-0.123-0.475l0.161-0.188c-0.105-0.021-0.159-0.069-0.164-0.143c-0.003-0.029,0.008-0.078,0.031-0.145
		c0.025-0.068,0.036-0.125,0.031-0.168c-0.003-0.045-0.02-0.086-0.052-0.129c0.039-0.031,0.084-0.049,0.128-0.051
		c0.044-0.005,0.102,0.006,0.178,0.029s0.134,0.033,0.178,0.031c0.087-0.006,0.162-0.086,0.225-0.236
		c-0.068-0.112-0.146-0.166-0.232-0.16c-0.044,0.004-0.101,0.025-0.173,0.057c-0.069,0.036-0.126,0.054-0.168,0.057
		c-0.09,0.008-0.168-0.045-0.234-0.158c0.055-0.046,0.08-0.107,0.075-0.18c-0.004-0.043-0.027-0.108-0.071-0.193
		c-0.04-0.084-0.064-0.147-0.067-0.191C121.586,39.74,121.611,39.678,121.666,39.617 M121.649,42.607
		c-0.042,0.031-0.047,0.083-0.021,0.152c0.026,0.072-0.019,0.113-0.134,0.121l-0.02-0.262L121.649,42.607z M121.451,39.963
		c0.016,0.014-0.002,0.072-0.053,0.179l-0.104-0.212c0.045,0.013,0.076,0.025,0.091,0.038L121.451,39.963z M121.36,39.64
		c0.003,0.03-0.012,0.075-0.045,0.136c-0.032,0.061-0.046,0.099-0.046,0.113l-0.083-0.235L121.36,39.64z M119.486,42.176
		l-0.159-0.361c0.05,0.068,0.124,0.101,0.229,0.092c0.158-0.012,0.241-0.076,0.247-0.193l0.019,0.262
		C119.733,41.951,119.62,42.02,119.486,42.176 M120.415,44.301c-0.142,0.057-0.218,0.119-0.227,0.194l-0.259-0.221l0.555-0.22
		C120.536,44.168,120.515,44.25,120.415,44.301 M120.547,40.207l0.014,0.174c-0.028,0.017-0.057,0.027-0.087,0.027
		c-0.058,0.006-0.098-0.032-0.117-0.109c-0.021-0.08-0.04-0.126-0.054-0.141C120.433,40.15,120.515,40.166,120.547,40.207
		 M120.023,42.31l0.058-0.114l0.164,0.143C120.166,42.271,120.095,42.262,120.023,42.31 M119.926,37.507
		c0.029-0.03,0.086-0.035,0.176-0.013L119.926,37.507c-0.021,0.296-0.039,0.442-0.054,0.444l-0.033-0.437L119.926,37.507z
		 M119.773,40.594c0.154-0.012,0.249-0.049,0.287-0.111l0.015,0.176l-0.522,0.039C119.547,40.641,119.622,40.605,119.773,40.594"/>
	<path fill="#C4161C" d="M118.868,46.221l-0.072-0.083C118.799,46.166,118.823,46.193,118.868,46.221"/>
	<path fill="#C4161C" d="M134.095,38.959c0.102-0.023,0.202-0.039,0.305-0.047l0.021,0.283l0.476-0.386
		c0.039-0.076,0.054-0.143,0.05-0.2c-0.005-0.074-0.088-0.172-0.251-0.29c-0.162-0.118-0.236-0.253-0.218-0.401
		c-0.779-0.832-1.195-1.49-1.247-1.969l-0.174,0.013c-0.084-0.138-0.122-0.251-0.113-0.337l-0.638-0.6
		c-0.284-0.078-0.577-0.105-0.884-0.084c-0.045,0.004-0.591,0.125-1.644,0.365l0.835,11.095l0.303,0.241
		c0.406-0.045,0.825-0.096,1.253-0.148c0.428-0.055,0.786-0.209,1.074-0.466c0.084-0.431,0.107-0.907,0.069-1.432
		c-0.02-0.249-0.066-0.612-0.138-1.09c-0.071-0.475-0.118-0.839-0.137-1.087c-0.041-0.523-0.018-1.002,0.067-1.433
		c0.139,0.093,0.267,0.243,0.387,0.454c0.082,0.125,0.185,0.323,0.307,0.592c0.101-0.038,0.202,0.004,0.306,0.12
		c0.104,0.117,0.163,0.255,0.174,0.415c0.005,0.059,0.001,0.115-0.009,0.176c0.526,0.752,1.011,1.278,1.459,1.583
		c0.055-0.048,0.143-0.149,0.264-0.306c0.078-0.123,0.162-0.189,0.25-0.193c0.044-0.004,0.087,0.007,0.133,0.031
		c-0.064-0.067-0.1-0.139-0.103-0.211c-0.007-0.058,0.016-0.146,0.067-0.268c0.048-0.122,0.071-0.211,0.065-0.271l-0.255,0.086
		l-0.019-0.239c0.255,0.053,0.458-0.119,0.62-0.52c0.16-0.4,0.342-0.601,0.547-0.602c-0.077-0.244-0.114-0.438-0.109-0.586
		c0.104,0.038,0.188,0.055,0.247,0.049c0.101-0.006,0.147-0.143,0.143-0.406c-0.004-0.264,0.073-0.408,0.232-0.435
		c0.129,0.37,0.188,0.674,0.177,0.909c0.104,0.021,0.213,0.05,0.325,0.084c0.111,0.035,0.152,0.137,0.12,0.298l-0.107,0.009
		c-0.185-0.103-0.343-0.055-0.473,0.146l0.07,0.061l-0.303,0.066c0.05,0.07,0.088,0.104,0.118,0.102
		c0.028-0.002,0.072-0.027,0.126-0.075c0.053-0.05,0.11-0.081,0.167-0.101c-0.022,0.09-0.029,0.186-0.022,0.287
		c0.019,0.261,0.165,0.639,0.438,1.131l-0.062,0.07l-0.181-0.052c0.011,0.16,0.076,0.255,0.197,0.28
		c0.12,0.029,0.206,0.114,0.261,0.257c-0.121,0.155-0.23,0.257-0.328,0.31l-0.092-0.346c0.021,0.087-0.047,0.247-0.205,0.479
		c0.011-0.017,0.033-0.032,0.063-0.05c-0.014,0.03-0.021,0.061-0.016,0.089c0.002,0.059,0.043,0.148,0.119,0.266
		c0.073,0.119,0.114,0.207,0.117,0.267c0.009,0.102-0.066,0.181-0.223,0.235l0.633,0.546c0.002,0.205,0.134,0.321,0.399,0.345
		c0.399,0.043,0.646,0.096,0.737,0.162c-0.037,0.076-0.077,0.16-0.124,0.251c-0.045,0.093-0.049,0.181-0.012,0.266
		c0.065-0.093,0.112-0.25,0.139-0.473c0.028-0.222,0.063-0.354,0.103-0.401c-0.029,0.002-0.053-0.02-0.071-0.063l0.22-0.301
		c0.042-0.02,0.086-0.029,0.128-0.031c0.103-0.008,0.202,0.054,0.302,0.186c0.096,0.131,0.168,0.211,0.216,0.237
		c0.08-0.108,0.161-0.218,0.248-0.327s0.188-0.16,0.308-0.156c0.109-0.314,0.031-0.558-0.231-0.729
		c0.156-0.055,0.235-0.196,0.233-0.423c-0.004-0.228,0.017-0.371,0.055-0.433c0.167-0.102,0.417-0.098,0.747,0.01l-0.144-0.165
		c-0.044,0.017-0.103-0.001-0.18-0.054s-0.131-0.076-0.159-0.074c-0.031,0.002-0.063,0.033-0.104,0.094l-0.447-0.404
		c0.08-0.3,0.121-0.436,0.124-0.406c-0.007-0.086-0.063-0.147-0.168-0.184l0.466-0.518c-0.181,0.115-0.329,0.099-0.443-0.056
		c-0.014-1.17-0.072-2.433-0.174-3.786c-0.104-1.369-0.234-2.641-0.396-3.814l-1.754,0.045l0.006,0.086
		c-0.133-0.018-0.258-0.023-0.375-0.015c-0.64,0.048-1.09,0.403-1.348,1.068c-0.052,0.061-0.076,0.144-0.067,0.247
		c0.003,0.043,0.016,0.111,0.036,0.205c0.023,0.094,0.035,0.161,0.038,0.205c0.01,0.117-0.036,0.209-0.134,0.273
		c-0.916,0.846-1.363,1.648-1.334,2.406c0.167-0.129,0.314-0.104,0.445,0.076l-0.414,0.34l-0.272-0.396
		c0.013,0.145-0.004,0.227-0.046,0.244c-0.061-0.039-0.115-0.057-0.159-0.055c-0.043,0.004-0.101,0.073-0.171,0.211
		c-0.07,0.139-0.157,0.197-0.262,0.174c-0.065-0.097-0.205-0.159-0.419-0.188c-0.216-0.029-0.344-0.121-0.383-0.279
		C133.925,39.035,133.994,38.98,134.095,38.959 M132.506,38.549l-0.006-0.064c-0.015,0.002-0.292,0.022-0.828,0.063
		c-0.379,0.028-0.669-0.008-0.865-0.111c0.102,0.023,0.213,0.029,0.33,0.021c0.175-0.016,0.436-0.07,0.778-0.17
		c0.343-0.098,0.579-0.153,0.713-0.162c0.13-0.01,0.24,0.004,0.333,0.04L132.506,38.549z M140.836,43.611l0.027,0.33
		c-0.065-0.055-0.108-0.072-0.137-0.057l-0.021-0.262L140.836,43.611z M140.6,44.555c0.101-0.023,0.184-0.008,0.246,0.045
		c0.012,0.16,0.018,0.24,0.018,0.24s-0.024,0.014-0.072,0.039c-0.051,0.025-0.098,0.041-0.141,0.045
		c-0.074,0.004-0.125-0.05-0.156-0.164c-0.03-0.116-0.104-0.176-0.222-0.182L140.6,44.555z M139.881,43.158l0.259,0.243
		l-0.415,0.032L139.881,43.158z M139.672,40.383l0.014,0.176c0.014-0.002-0.042,0.025-0.171,0.077L139.672,40.383z M139.425,42.796
		c0.048-0.046,0.108-0.061,0.185-0.036c0.017,0.058-0.014,0.118-0.098,0.184l-0.131,0.012
		C139.362,42.896,139.377,42.844,139.425,42.796 M136.107,42.363c0.074-0.005,0.186,0.017,0.336,0.064
		C136.293,42.395,136.184,42.373,136.107,42.363c-0.176,0-0.324,0.07-0.445,0.212C135.767,42.405,135.916,42.336,136.107,42.363
		 M135.63,42.994c0.035,0.1,0.028,0.202-0.022,0.309c-0.073,0.182-0.111,0.279-0.108,0.295l-0.045-0.59L135.63,42.994z
		 M135.304,39.548l0.142,0.121l-0.416,0.031L135.304,39.548z"/>
	<path fill="#C4161C" d="M136.86,43.012c-0.055,0.063-0.058,0.127-0.006,0.198l0.131-0.011c0.05-0.105,0.079-0.189,0.09-0.248
		C136.986,42.928,136.915,42.949,136.86,43.012"/>
	<polygon fill="#C4161C" points="137.031,43.811 136.971,43.903 137.319,43.877 	"/>
	<path fill="#C4161C" d="M137.535,42.061l0.086-0.029c0-0.014-0.01-0.027-0.024-0.043L137.535,42.061z"/>
	<polygon fill="#C4161C" points="142.778,46.938 142.778,46.938 142.778,46.936 	"/>
	<path fill="#C4161C" d="M142.408,45.207l-0.197-0.27l-0.091,0.534c0.05-0.106,0.104-0.163,0.161-0.167
		c0.044-0.003,0.104,0.012,0.18,0.041c0.076,0.032,0.135,0.045,0.178,0.043c0.043-0.004,0.087-0.027,0.128-0.076l-0.259-0.221
		L142.408,45.207z"/>
	<path fill="#C4161C" d="M142.935,46.683c-0.05-0.259-0.192-0.329-0.435-0.208c0.146-0.025,0.232,0.049,0.26,0.221
		c0.007,0.084,0.012,0.159,0.019,0.239C142.761,46.73,142.813,46.648,142.935,46.683"/>
	<path fill="#C4161C" d="M142.907,47.191l-0.021-0.262l-0.108,0.008c0.007,0.088,0.014,0.178,0.02,0.262L142.907,47.191z"/>
	<polygon fill="#C4161C" points="142.602,47.807 142.698,47.625 142.427,47.82 	"/>
	<path fill="#C4161C" d="M138,46.199c-0.037-0.1-0.135-0.186-0.293-0.253c-0.159-0.068-0.332-0.083-0.52-0.04l0.136,0.343
		l0.403-0.206c0.132,0.035,0.139,0.121,0.02,0.262L138,46.199z"/>
	<polygon fill="#C4161C" points="135.864,45.26 136.127,44.955 135.953,44.968 	"/>
	<polygon fill="#C4161C" points="137.615,44.602 137.443,44.615 137.636,44.842 	"/>
	<path fill="#C4161C" d="M142.047,41.303c0.042-0.031,0.099-0.037,0.175-0.013l-0.011-0.153
		C142.172,41.213,142.117,41.27,142.047,41.303"/>
	<path fill="#C4161C" d="M140.166,45.816c0.016,0,0.068,0.01,0.158,0.031C140.262,45.795,140.209,45.783,140.166,45.816"/>
	<path fill="#C4161C" d="M140.166,45.816c-0.07,0.006-0.136,0.025-0.191,0.059C140.021,45.9,140.085,45.881,140.166,45.816"/>
	<polygon fill="#C4161C" points="141.784,42.466 142.002,42.164 141.763,42.182 	"/>
	<path fill="#C4161C" d="M138.243,47.102c0.06,0.229,0.3,0.299,0.72,0.209c-0.06-0.009-0.172-0.053-0.34-0.127
		C138.455,47.108,138.33,47.081,138.243,47.102"/>
	<polygon fill="#C4161C" points="141.658,46.361 141.564,46.26 141.324,46.277 	"/>
	<path fill="#C4161C" d="M139.262,47.201c-0.143,0.055-0.242,0.092-0.299,0.109C139.064,47.318,139.164,47.282,139.262,47.201"/>
	<path fill="#C4161C" d="M141.582,41.537c0.004,0.058,0.031,0.129,0.083,0.214c0.054-0.226,0.168-0.372,0.338-0.444
		C141.718,41.401,141.578,41.479,141.582,41.537"/>
	<path fill="#C4161C" d="M148.858,37.263c0.006,0.073,0.067,0.14,0.191,0.204c0.134,0.02,0.267-0.049,0.402-0.205
		c-0.055-0.129-0.169-0.186-0.344-0.172C148.935,37.102,148.852,37.16,148.858,37.263"/>
	<path fill="#C4161C" d="M153.012,33.786c-0.06-0.024-0.104-0.038-0.133-0.034c-0.074,0.006-0.692,0.075-0.705,0.208
		c-0.012,0.134-0.054,0.202-0.127,0.208l0.937,0.104l-0.762-0.117c0.013-0.045,0.626-0.105,0.695-0.186
		C152.983,33.891,153.015,33.828,153.012,33.786"/>
	<path fill="#C4161C" d="M142.58,37.025c0.352-0.012,0.548,0.258,0.588,0.811c0.009,0.088,0.012,0.236,0.013,0.448
		c0,0.212,0.007,0.368,0.014,0.472c0.021,0.275,0.073,0.49,0.159,0.645l0.213,4.305c0.008,0.086,0.01,0.236,0.012,0.447
		c0,0.213,0.006,0.376,0.016,0.492c0.041,0.537,0.221,0.889,0.54,1.055c0.56,0.031,0.903,0.043,1.035,0.035
		c0.421-0.033,0.722-0.143,0.898-0.334c0.304,0.168,0.71,0.232,1.221,0.195c0.64-0.064,1.063-0.075,1.271-0.031
		c0.331-0.084,0.146-0.142,0.598-0.176c0.188-0.014,0.477-0.035,0.862-0.064c0.385-0.028,0.681-0.051,0.886-0.066
		c0.407-0.031,0.775-0.09,1.107-0.172c0.141-0.26,0.198-0.586,0.168-0.979c0.009,0.12-0.042-0.159-0.15-0.823l0.337,0.1
		l-0.354-0.201c-0.02-0.121-0.04-0.252-0.064-0.397l-0.285,0.021c-0.043-0.024-0.111-0.034-0.198-0.03
		c-0.118,0.01-0.24,0.02-0.372,0.03c-0.161-0.003-0.224-0.064-0.188-0.185c-0.444,0.165-0.962,0.293-1.554,0.381
		c-0.364,0.041-0.313,0.081-0.997,0.118c-0.744,0.026-1.276,0.06-1.596,0.099c-0.221-0.014-0.353-0.109-0.396-0.29
		c-0.042-0.179-0.082-0.37-0.108-0.575c-0.056-0.154-0.194-0.254-0.417-0.296c-0.177-0.001-0.354-0.003-0.53-0.005l0.188-0.146
		c-0.374,0.072-0.724,0.003-1.048-0.206c0.065-0.109,0.149-0.166,0.25-0.174c0.058-0.004,0.156,0.016,0.29,0.055
		c0.136,0.042,0.231,0.061,0.289,0.057l0.064-0.313c0.172,0.147,0.347,0.216,0.521,0.202c0.146-0.011,0.355-0.127,0.633-0.354
		c0.275-0.227,0.494-0.346,0.654-0.357c0.131-0.009,0.259,0.018,0.379,0.081c0.129-0.038,0.283-0.065,0.455-0.078
		c0.159-0.011,0.424-0.011,0.794,0.007c0.104,0.005,0.15,0.008,0.171,0.011c0.005-0.002,0.018-0.003,0.042-0.005
		c0.496-0.037,0.848-0.209,1.06-0.52c-0.011-0.145,0.004-0.343,0.043-0.596c0.04-0.251,0.055-0.428,0.048-0.53
		c-0.018-0.218-0.114-0.394-0.293-0.528c-0.173-0.127-0.377-0.199-0.604-0.213c0.004,0.005-0.014,0.014-0.095,0.023
		c-0.408,0.047-0.62,0.069-0.634,0.07c-0.077-0.039-0.153-0.08-0.229-0.126c-0.077-0.044-0.118-0.104-0.122-0.179
		c-0.005-0.027,0.002-0.064,0.013-0.109l-0.11,0.007l0.021,0.265l0.107-0.01c-0.397,0.148-0.795,0.235-1.187,0.266
		c-0.466,0.034-0.837-0.025-1.113-0.181c-0.069-0.155-0.109-0.319-0.124-0.494c-0.012-0.161,0.002-0.4,0.046-0.717
		c0.04-0.319,0.057-0.552,0.046-0.696c-0.011-0.131-0.035-0.255-0.072-0.369l4.92-0.521c0.082,0.111,0.181,0.161,0.298,0.152
		c0.101-0.008,0.275-0.102,0.526-0.281l-0.31-0.041c0.214-0.252,0.31-0.537,0.286-0.857c-0.01-0.146-0.092-0.461-0.246-0.947
		c-1.216,0.004-1.891,0.17-2.027,0.503l-0.259-0.245c-0.202,0.045,0.097,0.053-0.259,0.02c-0.501-0.049-0.78-0.079-0.84-0.09
		c-0.061-0.01-0.117-0.014-0.177-0.008c-0.072,0.005-0.184,0.041-0.332,0.113c-0.149,0.068-0.261,0.105-0.333,0.111
		c-0.131,0.008-0.224-0.057-0.279-0.199c-0.267,0.138-0.88,0.243-1.842,0.314c-0.188,0.029-0.452,0.03-0.791,0.004
		c-0.338-0.024-0.575-0.031-0.703-0.022c-0.22,0.017-0.405,0.074-0.559,0.173l0.114,0.078c-0.021,0.091,0.023,0.576,0.133,1.459
		C143.186,36.506,143.01,36.877,142.58,37.025 M150.122,34.553l0.013,0.197l-0.255-0.178L150.122,34.553z M145.355,37.679
		l0.01,0.132l-0.177,0.012l-0.01-0.131L145.355,37.679z M145.081,41.346l0.014,0.174l-0.263-0.266
		C144.978,41.243,145.062,41.273,145.081,41.346 M144.384,41.705c-0.04,0.049-0.12,0.076-0.237,0.084
		c-0.247,0.02-0.398-0.035-0.451-0.164L144.384,41.705z"/>
	<path fill="#C4161C" d="M149.832,37.43l0.516,0.137l-0.253-0.156l0.151-0.318c-0.138-0.092-0.259-0.119-0.355-0.082
		c-0.028,0.017-0.05,0.047-0.06,0.092c0,0.014,0.021,0.045,0.06,0.094c0.041,0.049,0.063,0.086,0.065,0.116
		C149.959,37.355,149.919,37.395,149.832,37.43"/>
	<path fill="#C4161C" d="M149.228,38.442c0.006,0.001,0.01,0.002,0.017,0.003C149.233,38.432,149.107,38.432,149.228,38.442"/>
	<path fill="#C4161C" d="M148.948,40.837C148.926,40.842,148.987,40.842,148.948,40.837"/>
	<polygon fill="#C4161C" points="151.288,40.784 152.396,40.262 151.689,40.579 	"/>
	<polygon fill="#C4161C" points="153.729,44.247 153.88,43.949 153.51,43.977 	"/>
	<path fill="#C4161C" d="M153.609,38.875c-0.167-0.074-0.265-0.119-0.296-0.133l-0.063,0.314l0.317-0.158
		c0.305,0.152,0.435,0.444,0.395,0.872c-0.036,0.5-0.003,0.814,0.095,0.938l0.4-0.184l0.013,0.153l-0.2,0.255
		c-0.08,0.109-0.164,0.153-0.254,0.13c-0.038,0.076-0.025,0.154,0.041,0.239c0.083,0.124,0.122,0.204,0.126,0.231
		c-0.009,0.074-0.05,0.115-0.122,0.12l0.121,0.736c-0.122,0.142-0.197,0.205-0.227,0.191l0.64,0.634
		c-0.015-0.014-0.038-0.02-0.068-0.017c-0.028,0.003-0.081,0.024-0.158,0.067c-0.079,0.043-0.138,0.065-0.181,0.068
		c-0.061,0.004-0.1-0.044-0.123-0.144c-0.067,0.063-0.122,0.126-0.16,0.188c0.101-0.009,0.162,0.017,0.183,0.075
		c0.016,0.041,0.022,0.129,0.019,0.261s0.003,0.241,0.023,0.326c0.034,0.438,0.281,0.706,0.743,0.802
		c-0.071,0.05-0.097,0.111-0.075,0.182c0.135,0.033,0.288,0.043,0.463,0.031c0.189-0.014,0.43-0.063,0.726-0.143
		c0.295-0.081,0.464-0.123,0.507-0.126l-0.114-0.058c0.381,0.002,0.56-0.145,0.538-0.436c-0.003-0.044-0.017-0.115-0.039-0.217
		c-0.021-0.101-0.034-0.173-0.038-0.217c-0.009-0.133,0.012-0.228,0.067-0.29l-0.342-0.151c0.096-0.08,0.174-0.121,0.232-0.127
		l-0.018-1.404l0.176-0.013c-0.203-0.526-0.316-0.972-0.344-1.337c-0.015-0.204-0.005-0.38,0.027-0.529l0.428,0.145
		c0.441,0.025,0.698-0.052,0.773-0.234l0.069,0.061c0.083-0.094,0.157-0.143,0.23-0.15c0.103-0.006,0.204,0.102,0.312,0.329
		c0.057,0.187,0.122,0.372,0.195,0.557c0.143,0.149,0.324,0.431,0.545,0.837c0.186,0.34,0.39,0.595,0.607,0.768
		c0.009,0.133,0.088,0.291,0.233,0.478c0.146,0.187,0.224,0.346,0.233,0.477c0.004,0.059-0.004,0.125-0.028,0.199
		c0.045,0.026,0.206,0.227,0.483,0.601c0.194,0.234,0.399,0.328,0.615,0.284l0.337,0.393c0.205-0.206,0.525-0.317,0.963-0.337
		c0.744-0.041,1.101-0.063,1.073-0.058c0.057-0.182,0.083-0.353,0.069-0.511c-0.021-0.292-0.236-0.664-0.646-1.117
		c-0.404-0.451-0.626-0.83-0.664-1.137c-0.01-0.117-0.094-0.197-0.25-0.244c-0.157-0.045-0.237-0.101-0.243-0.158
		c-0.005-0.057,0.027-0.139,0.091-0.247c-0.207-0.043-0.33-0.25-0.365-0.62c-0.032-0.371-0.17-0.57-0.406-0.597l0.488-0.521
		c0.256-0.092,0.519-0.301,0.787-0.629c0.212-0.279,0.427-0.561,0.641-0.84c-0.154-0.28-0.222-0.713-0.21-1.301
		c0.034-0.721,0.037-1.174,0.01-1.364c-0.095-0.475-0.348-0.815-0.758-1.016c-0.081-0.112-0.316-0.205-0.702-0.279
		c-0.314-0.079-0.479-0.24-0.497-0.488l-0.304,0.085c-0.151-0.156-0.354-0.226-0.603-0.213c0.013,0.009-0.299,0.074-0.936,0.199
		c-0.044-0.2-0.117-0.299-0.218-0.291c-0.045,0.003-0.122,0.039-0.234,0.106c-0.112,0.066-0.196,0.103-0.256,0.106
		c-0.042,0.004-0.087-0.008-0.133-0.033c-0.109,0.124-0.235,0.191-0.381,0.202c-0.132,0.01-0.337-0.039-0.615-0.149
		c-0.281-0.11-0.493-0.162-0.639-0.15c-0.085,0.006-0.243,0.051-0.471,0.135c-0.229,0.081-0.424,0.131-0.584,0.143
		c-0.145,0.01-0.354,0.008-0.625-0.008c-0.274-0.016-0.475-0.02-0.607-0.01c-0.404,0.031-0.734,0.15-0.98,0.359
		c-0.072,0.035-0.106,0.083-0.101,0.141c0.004,0.045,0.034,0.104,0.091,0.182c0.055,0.076,0.094,0.127,0.111,0.156
		c-0.038,0.297-0.041,0.635-0.012,1.016c0.014,0.176,0.039,0.445,0.082,0.811c0.041,0.363,0.069,0.635,0.083,0.809
		c0.041,0.54,0.01,1.006-0.092,1.396c0.047,0.069,0.098,0.139,0.146,0.209c0.084,0.141,0.188,0.229,0.307,0.264l-0.163,0.189
		C153.834,38.946,153.73,38.924,153.609,38.875 M161.628,38.601l0.278,0.221l-0.522-0.268L161.628,38.601z M159.081,38.617
		l0.156-0.254c0.138,0.117,0.237,0.186,0.305,0.208C159.375,38.605,159.219,38.627,159.081,38.617 M159.634,38.549l0.114-0.114
		l0.114,0.058C159.779,38.519,159.709,38.531,159.634,38.549 M160.942,38.828l-0.742,0.057c0.051-0.106,0.132-0.164,0.251-0.174
		c0.072-0.006,0.169,0.01,0.287,0.045C160.813,38.779,160.881,38.803,160.942,38.828 M160.175,38.535l-0.02-0.24l0.351-0.027
		L160.175,38.535z M156.382,35.888c0.142-0.164,0.194-0.288,0.161-0.376c0.454-0.18,0.898-0.285,1.336-0.318
		c0.962-0.072,1.758,0.189,2.388,0.786c0.114,0.153,0.174,0.288,0.185,0.403c0.013,0.189-0.126,0.376-0.421,0.561
		c-0.332,0.23-0.53,0.412-0.595,0.548c-0.224,0.137-0.525,0.216-0.904,0.245c-0.219,0.017-0.559,0.012-1.021-0.012
		c-0.462-0.022-0.782-0.029-0.956-0.016c-0.148-0.414-0.149-0.809,0-1.186c-0.243-0.084-0.367-0.178-0.374-0.28
		C156.174,36.172,156.242,36.053,156.382,35.888"/>
	<polygon fill="#C4161C" points="152.956,40.701 152.86,40.887 153.197,40.684 	"/>
	<polygon fill="#C4161C" points="152.716,38.963 152.659,39.101 152.9,39.082 	"/>
	<polygon fill="#C4161C" points="152.959,43.098 152.947,42.923 152.685,42.942 	"/>
	<path fill="#C4161C" d="M160.12,33.158c0.01-0.001,0.018,0,0.027,0C160.146,33.157,160.138,33.156,160.12,33.158"/>
	<path fill="#C4161C" d="M108.02,50.982c-0.065-0.301-0.249-0.49-0.548-0.569c-0.204,0.017-0.514,0.046-0.92,0.089
		c-0.008,0.019-0.014,0.037-0.025,0.053c-0.037,0.05-0.094,0.091-0.138,0.135c-0.054,0.055-0.112,0.064-0.162,0.107
		c-0.081,0.066-0.044,0.109-0.079,0.193c-0.033,0.077-0.139,0.174-0.207,0.219c-0.061,0.039-0.199,0.104-0.275,0.068
		c-0.102-0.047-0.027-0.092,0.006-0.164c0.028-0.064,0.029-0.15,0.064-0.22c0.044-0.087,0.068-0.13,0.096-0.215
		c0.012-0.038,0.024-0.075,0.038-0.112c-0.129,0.008-0.245,0.015-0.34,0.016c-0.336,0.01-0.652-0.016-0.948-0.082
		c-0.095-0.285-0.164-0.701-0.205-1.248c-0.053-0.031-0.146-0.078-0.173-0.086c-0.094-0.031-0.383-0.035-0.379-0.162
		c0.083-0.054,0.503-0.182,0.37-0.33c-0.047-0.053-0.145,0.013-0.198-0.073c-0.034-0.054-0.022-0.192,0-0.249
		c0.029-0.075,0.127-0.143,0.167-0.217c0.022-0.043,0.04-0.093,0.056-0.144c-0.003-0.009-0.004-0.02-0.006-0.028
		c-0.012-0.107-0.021-0.225-0.031-0.348c-0.053-0.012-0.121-0.021-0.135-0.047c-0.04-0.074,0.054-0.117,0.121-0.15
		c-0.035-0.525-0.063-1.172-0.078-1.944c-0.025-1.137-0.054-1.922-0.088-2.359c-0.044-0.596-0.113-1.407-0.205-1.839l-2.464,0.186
		c-0.283,0.283-0.269,0.857-0.229,1.365c0.014,0.188,0.053,0.418,0.117,0.691c0.084,0.328,0.128,0.514,0.13,0.559
		c-0.087,0.197-0.126,0.389-0.112,0.576c0.015,0.175,0.107,0.412,0.275,0.713c0.167,0.299,0.26,0.545,0.273,0.732
		c0.01,0.116,0.004,0.226-0.018,0.33l0.152-0.297c0.015,0.016,0.024,0.021,0.036,0.033c-0.012,0.072-0.029,0.138-0.04,0.218
		c-0.009,0.071,0.012,0.148,0.004,0.221c-0.012,0.075-0.044,0.093-0.061,0.158c-0.001,0.008,0.002,0.017,0.002,0.024
		c-0.024-0.016-0.048-0.031-0.072-0.052l0.062-0.069l-0.397,0.271c-0.036,0.281-0.042,0.618-0.012,1.011
		c0.011,0.146,0.037,0.379,0.074,0.697c0.04,0.319,0.064,0.559,0.076,0.719c0.043,0.567,0.014,1.047-0.089,1.436
		c-0.089,0.006-0.225,0.038-0.411,0.097c-0.186,0.06-0.33,0.089-0.432,0.097c-0.232,0.018-0.406-0.07-0.525-0.266
		c-0.068,0.254-0.48,0.4-0.788,0.424c-0.538,0.041-0.827,0.057-0.874,0.051l-0.027,1.973l0.266,0.33
		c0.951-0.027,2.633-0.146,4.594-0.338c1.833-0.166,3.285-0.262,4.352-0.282c0.352,0.002,0.527-0.139,0.527-0.421
		c-0.001-0.281-0.001-0.555-0.006-0.816C108.163,51.617,108.108,51.395,108.02,50.982"/>
	<path fill="#C4161C" d="M94.667,52.144c-0.007-0.106-0.016-0.205-0.023-0.29c-0.205-0.291-0.634-0.412-1.288-0.363
		c-0.082,0.006-0.407,0.047-0.975,0.123c-0.158-0.078-0.352-0.106-0.587-0.088c-0.167,0.012-0.417,0.057-0.747,0.135
		c-0.33,0.08-0.565,0.124-0.698,0.135c-0.201,0.015-0.347-0.019-0.435-0.099l-0.61,0.29c-0.084-0.213-0.341-0.275-0.771-0.189
		c-0.498,0.104-0.808,0.126-0.931,0.068c-0.145,0.066-0.269,0.104-0.369,0.109c-0.086,0.007-0.174-0.012-0.271-0.053
		c-0.095-0.041-0.169-0.063-0.22-0.057c-0.1,0.007-0.229,0.07-0.387,0.191c-2.686,0.121-4.609,0.291-5.771,0.508
		c-1.583,0.008-2.726,0.037-3.429,0.09c-0.889,0.064-1.72,0.182-2.498,0.348c-0.065,0.047-0.094,0.1-0.09,0.152
		c0,0.002,0.003,0.006,0.004,0.008c-0.582-0.004-0.997-0.086-1.228-0.252c-0.084-1.59-0.299-3.867-0.644-6.83
		c0.092-1.307,0.001-2.164-0.272-2.57c0.154-0.271,0.177-0.654,0.069-1.148c-0.111-0.564-0.125-0.975-0.039-1.223
		c-0.117-0.194-0.175-0.412-0.18-0.654c0.019-0.243,0.075-0.412,0.17-0.512c-0.078-0.385-0.146-0.891-0.192-1.52
		c-0.045-0.832-0.084-1.348-0.115-1.551c0.346-0.23,0.702-0.358,1.063-0.387c0.025-0.002,0.052,0.004,0.078,0.002
		c0.02,0.116,0.056,0.215,0.123,0.291c0.296,0.127,0.733,0.115,1.311-0.034c0.102,0.034,0.362,0.031,0.776-0.012
		c0.343-0.024,0.568,0.028,0.678,0.161l-0.011-0.178c-0.021-0.074-0.002-0.125,0.052-0.148c1.964-0.085,3.467-0.176,4.509-0.275
		c0.17-0.055,0.353-0.091,0.554-0.105c0.156-0.014,0.392-0.012,0.701,0.004c0.029,0.002,0.055,0.002,0.081,0.004
		c0.148-0.082,0.295-0.164,0.44-0.249c0.129-0.075,0.247-0.171,0.399-0.19c0.063-0.01,0.122,0.01,0.184-0.008
		c0.049-0.014,0.104-0.061,0.163-0.07c0.06-0.01,0.131,0.004,0.192,0.002c0.106-0.002,0.278-0.048,0.276-0.188
		c0.011,0,0.023-0.002,0.036-0.003c-0.187-0.105-0.229-0.327-0.118-0.677c0.017,0.021,0.065,0.113,0.148,0.281
		c0.054,0.125,0.131,0.211,0.237,0.257l0,0c0.013-0.076-0.001-0.179-0.003-0.234c-0.004-0.441-0.109-0.886-0.146-1.325
		c-0.007-0.078-0.006-0.158-0.007-0.237c-0.049-0.008-0.098-0.021-0.15-0.048c-0.08-0.042-0.145-0.063-0.188-0.059
		c-0.086,0.006-0.196,0.068-0.33,0.187c-2.288,0.097-3.926,0.247-4.913,0.45c-1.349-0.007-2.321,0.014-2.922,0.058
		c-0.307,0.022-0.601,0.06-0.892,0.101c-0.001-0.018-0.007-0.033-0.005-0.049c-0.157-0.008-0.713-0.031-1.668-0.07
		c-0.712-0.021-1.291-0.016-1.737,0.02c-0.965,0.072-1.754,0.308-2.362,0.705c-0.003,0.205,0.072,0.525,0.227,0.958
		c-0.007,0.614,0.031,1.446,0.11,2.498c0.117,1.328,0.18,2.157,0.187,2.493c0.04,0.072,0.064,0.163,0.073,0.272
		c0.008,0.11-0.002,0.274-0.03,0.491c-0.024,0.216-0.034,0.377-0.025,0.487c0.014,0.204,0.078,0.368,0.192,0.487
		c0.031,0.668,0.104,1.636,0.218,2.91c-0.061,0.135-0.079,0.332-0.061,0.59c0.007,0.091,0.019,0.23,0.033,0.414
		c0.031,0.203,0.049,0.34,0.057,0.414c0.023,0.313-0.031,0.514-0.163,0.597c0.203,0.634,0.354,1.616,0.454,2.946
		c0.13,1.977,0.198,3.002,0.206,3.076c0.082,0.18,0.116,0.633,0.103,1.357c0.008,0.574,0.174,0.95,0.498,1.131
		c0.1-0.014,0.898-0.101,2.398-0.262c1.063-0.117,1.893-0.153,2.486-0.104c0.092-0.081,0.188-0.169,0.286-0.259
		c0.136-0.022,0.277-0.048,0.43-0.084c0.118,0.033,0.423,0.029,0.908-0.018c0.402-0.029,0.667,0.021,0.795,0.154l-0.015-0.179
		c-0.021-0.075,0-0.125,0.066-0.153c2.305-0.104,4.068-0.213,5.293-0.325c0.197-0.058,0.413-0.095,0.651-0.112
		c0.183-0.014,0.459-0.016,0.82-0.003c0.362,0.011,0.629,0.011,0.797-0.001c0.256-0.021,0.478-0.08,0.68-0.157
		c0.025-0.017,0.047-0.038,0.074-0.052c0.046-0.021,0.048-0.018,0.086-0.045c0.035-0.027,0.067-0.06,0.104-0.087
		c0.039-0.029,0.074-0.056,0.118-0.079c0.086-0.048,0.039-0.037,0.075-0.105c0.036-0.067,0.074-0.148,0.116-0.216
		c-0.188-0.11-0.218-0.333-0.09-0.669c0.017,0.02,0.075,0.113,0.171,0.281c0.029,0.063,0.067,0.114,0.113,0.157
		c0.001-0.002,0.003-0.006,0.007-0.009c0.066-0.037,0.216-0.004,0.291-0.007c0.012,0,0.024-0.004,0.036-0.006l0.163-0.114
		c0.01,0.016,0.015,0.029,0.021,0.043c0.06-0.035,0.116-0.074,0.177-0.108c0.1-0.054,0.125-0.057,0.2,0.021
		c0.043,0.047,0.092,0.088,0.134,0.137c0.059,0.066,0.061,0.131,0.04,0.221c-0.031,0.135-0.064,0.096-0.176,0.125
		c-0.125,0.031-0.046,0.102-0.092,0.186c-0.055,0.097-0.11,0.055-0.109,0.19c0,0.028,0,0.058,0,0.087
		c2.888-0.193,5.064-0.354,6.518-0.482c0.407-0.182,0.599-0.441,0.576-0.777c-0.009-0.119-0.052-0.296-0.128-0.529
		S94.676,52.252,94.667,52.144 M75.106,34.789c0.005,0.063-0.028,0.104-0.099,0.119l-0.017-0.225
		C75.062,34.688,75.102,34.724,75.106,34.789 M76.736,53.403l-0.015-0.228c0.082,0.004,0.128,0.041,0.132,0.105
		S76.818,53.387,76.736,53.403 M89.522,52.41c-0.036-0.043-0.031-0.09,0.014-0.148c0.048-0.059,0.104-0.089,0.173-0.094
		c0.032-0.004,0.06,0.012,0.077,0.043C89.724,52.281,89.637,52.346,89.522,52.41 M90.217,52.229c0.168-0.013,0.26-0.037,0.275-0.069
		l0.142,0.218L90.217,52.229z"/>
	<path fill="#C4161C" d="M126.704,32.422c0.034,0.023,0.07,0.041,0.117,0.047c0.008-0.034,0.012-0.066,0.016-0.098
		C126.784,32.389,126.741,32.406,126.704,32.422"/>
	<path fill="#C4161C" d="M170.52,46.887c-0.348-4.303-0.793-10.465-1.339-18.484c-0.496-0.611-1.318-0.883-2.464-0.82
		c-0.568-0.105-1.413-0.064-2.538,0.126c-0.195-0.028-0.699-0.006-1.502,0.064c-0.666,0.05-1.102,0.012-1.307-0.114l0.014,0.179
		c0.032,0.073-0.006,0.124-0.116,0.153c-3.807,0.218-6.724,0.414-8.748,0.586c-0.329,0.066-0.689,0.116-1.078,0.145
		c-0.305,0.021-0.759,0.037-1.356,0.043c-0.599,0.009-1.038,0.022-1.316,0.043c-0.081,0.006-0.157,0.016-0.234,0.023
		c-0.034,0.064-0.071,0.129-0.11,0.17c-0.079,0.078-0.208,0.117-0.296,0.188c-0.141,0.116-0.152,0.273-0.284,0.387
		c-0.048,0.04-0.199,0.106-0.262,0.142c-0.12,0.067-0.248,0.129-0.368,0.194c-0.128,0.071-0.246,0.142-0.359,0.22
		c-0.021,0.043-0.043,0.086-0.075,0.133c-0.009-0.006-0.026-0.022-0.047-0.042c-0.108,0.087-0.212,0.181-0.313,0.302
		c0.01-0.176,0.028-0.387,0.025-0.588c-0.092-0.087-0.209-0.154-0.37-0.186l-0.568,0.253c-0.061-0.062-0.092-0.108-0.095-0.139
		c-0.006-0.075,0.115-0.144,0.364-0.205c0.158-0.039,0.278-0.077,0.37-0.11c-0.008-0.031-0.011-0.064-0.016-0.096l-0.21-0.064
		l-0.323,0.155l-0.13-0.071c0.195-0.005,0.394-0.079,0.592-0.222c0.02-0.015,0.035-0.023,0.053-0.036c0-0.048,0-0.096,0.006-0.143
		c-0.003,0.003-0.006,0.004-0.007,0.006c-0.161,0.113-0.338,0.166-0.535,0.16c-0.116-0.078-0.161-0.123-0.136-0.135
		c-2.989,0.209-5.254,0.373-7.223,0.52c-0.339-0.041-0.759-0.043-1.264-0.006c-0.141,0.01-0.68,0.068-1.619,0.169
		c-0.254-0.067-0.576-0.087-0.964-0.058c-0.276,0.02-0.691,0.079-1.241,0.174c-0.549,0.094-0.935,0.15-1.157,0.165
		c-0.331,0.026-0.57,0-0.713-0.075l-1.021,0.318c-0.126-0.207-0.549-0.256-1.264-0.148c-0.825,0.127-1.339,0.165-1.537,0.115
		c-0.246,0.071-0.452,0.114-0.617,0.127c-0.14,0.01-0.286-0.004-0.441-0.041c-0.156-0.036-0.276-0.053-0.358-0.047
		c-0.167,0.014-0.385,0.083-0.653,0.211c-4.435,0.254-7.619,0.518-9.546,0.791c-2.612,0.085-4.933,0.173-6.096,0.258
		c-1.405,0.106-2.727,0.255-3.973,0.445c-0.253-0.018-0.557,0.014-0.925,0.111c-0.103-0.035-0.357-0.031-0.767,0.009
		c-0.338,0.026-0.563-0.028-0.671-0.159l0.013,0.177c0.021,0.073,0.002,0.123-0.055,0.149c-1.937,0.082-3.422,0.172-4.451,0.271
		c-0.166,0.054-0.35,0.091-0.546,0.104c-0.156,0.012-0.388,0.01-0.692-0.004c-0.308-0.014-0.53-0.018-0.67-0.006
		c-0.313,0.023-0.576,0.107-0.793,0.254l-0.179-0.131c-0.077-0.082-0.144-0.12-0.201-0.115c-0.043,0.002-0.102,0.059-0.179,0.166
		c-0.078,0.108-0.166,0.155-0.267,0.142c-0.063-0.081-0.088-0.127-0.074-0.139c-2.365,0.157-4.161,0.292-5.398,0.402
		c-0.191-0.078-0.436-0.11-0.741-0.087c-0.073,0.006-0.35,0.042-0.832,0.111c-0.134-0.076-0.301-0.107-0.501-0.092
		c-0.143,0.01-0.354,0.054-0.637,0.129c-0.281,0.073-0.479,0.117-0.593,0.126c-0.171,0.011-0.296-0.022-0.373-0.103l-0.517,0.281
		c-0.073-0.209-0.293-0.273-0.658-0.192c-0.424,0.097-0.688,0.116-0.792,0.06c-0.125,0.063-0.229,0.098-0.316,0.104
		c-0.021,0.002-0.044-0.003-0.068-0.006c0.017,0.031,0.014,0.053,0.026,0.084c0.032,0.08,0.063,0.138,0.087,0.222
		c0.012,0.044,0.029,0.063,0.029,0.124c0,0.053,0,0.104,0,0.154s0.002,0.104,0,0.154c0,0.057,0.021,0.082,0.03,0.125
		c0.011,0.049,0.008,0.094,0.008,0.145c0.002,0.078,0.026,0.119,0.042,0.192c0.02,0.092-0.002,0.214-0.002,0.309
		c0,0.082,0.005,0.144,0.022,0.207l0.187-0.152c0.032,0.062,0.052,0.11,0.054,0.142c0.005,0.073-0.054,0.135-0.172,0.186
		c0.025,0.037,0.052,0.07,0.073,0.11c0.004,0.005,0.008,0.014,0.012,0.021l0.002-0.002l0.07,0.075c-0.008,0-0.015,0.007-0.024,0.009
		c0.023,0.048,0.06,0.104,0.076,0.146c0.021,0.061,0.019,0.137,0.015,0.211c2.376-0.158,4.182-0.293,5.43-0.406
		c0.188,0.078,0.431,0.111,0.733,0.089c0.072-0.005,0.344-0.042,0.821-0.11c0.134,0.077,0.298,0.106,0.495,0.091
		c0.141-0.01,0.351-0.052,0.627-0.126c0.277-0.076,0.475-0.117,0.587-0.126c0.169-0.013,0.292,0.021,0.367,0.103l0.511-0.281
		c0.073,0.211,0.29,0.274,0.651,0.194c0.419-0.097,0.68-0.116,0.783-0.06c0.122-0.063,0.227-0.099,0.31-0.105
		c0.071-0.006,0.146,0.014,0.228,0.057c0.08,0.043,0.143,0.062,0.186,0.059c0.085-0.007,0.193-0.068,0.325-0.186
		c2.259-0.095,3.878-0.244,4.854-0.447c1.333,0.009,2.294-0.009,2.887-0.055c0.74-0.055,1.435-0.161,2.083-0.318
		c0.523,0.02,1.191-0.039,2.012-0.178c0.197,0.027,0.698,0.007,1.503-0.063c0.342-0.026,0.736-0.028,1.066-0.008
		c0.116-0.011,0.233-0.012,0.349-0.047c0.106-0.033,0.135-0.102,0.191-0.186c0.045-0.065,0.109-0.098,0.173-0.143
		c0.088-0.063,0.159-0.098,0.261-0.135c0.059-0.021,0.108-0.055,0.16-0.09c-0.018-0.025-0.032-0.053-0.05-0.079
		c0.035,0.042,0.099,0.024,0.146,0.022c-0.034,0.014-0.065,0.037-0.097,0.057c0.028,0.043,0.059,0.083,0.08,0.129
		c0.037,0.072,0.03,0.146,0.03,0.232c3.575-0.207,6.341-0.393,8.28-0.559c0.33-0.067,0.689-0.116,1.076-0.145
		c0.308-0.023,0.76-0.039,1.359-0.045c0.599-0.008,1.037-0.021,1.313-0.041c0.611-0.045,1.136-0.148,1.571-0.311l0.088,0.031
		c0.085-0.117,0.138-0.217,0.058-0.349c-0.001-0.003-0.003-0.005-0.006-0.008c0.166,0.013,0.375,0.039,0.5-0.003
		c0.108-0.036,0.152-0.141,0.196-0.234c0.028-0.059,0.066-0.102,0.108-0.135c0.057,0.024,0.111,0.05,0.182,0.064l0.049-0.023
		c0.014-0.051,0.027-0.101,0.04-0.152c0.009-0.002,0.018-0.005,0.025-0.007c0.008,0.038,0.02,0.077,0.035,0.114l0.419-0.186
		c0.06,0.061,0.092,0.107,0.092,0.139c0.007,0.074-0.114,0.143-0.361,0.207c-0.027,0.006-0.052,0.013-0.079,0.02
		c0,0.004,0.005,0.006,0.005,0.009c0.011,0.052,0.019,0.122,0.032,0.189l0.219-0.104l0.129,0.071
		c-0.111,0.002-0.222,0.033-0.334,0.082c0.019,0.069,0.05,0.131,0.105,0.167c0.041-0.003,0.079-0.016,0.121-0.015
		c0.024,0.016,0.031,0.024,0.049,0.037c0.022-0.002,0.047-0.004,0.064-0.004c0.076,0,0.153,0,0.23,0c0.082,0,0.135,0,0.202,0.029
		c0.024,0.01,0.042,0.025,0.063,0.04c0.452-0.032,0.896-0.063,1.329-0.095c0.028-0.035,0.057-0.066,0.101-0.1
		c0.112-0.084,0.288-0.207,0.425-0.223c0.034-0.004,0.073,0.016,0.107-0.005c0.041-0.026,0.025-0.06,0.086-0.075
		c0.092-0.021,0.164,0.019,0.233,0.072c0.126,0.099,0.271,0.176,0.419,0.229c0.003,0.001,0.008,0.001,0.009,0.003
		c1.491-0.106,2.84-0.205,4.041-0.295c0.341,0.04,0.761,0.043,1.265,0.005c0.14-0.011,0.679-0.067,1.619-0.169
		c0.254,0.068,0.574,0.088,0.963,0.059c0.277-0.021,0.691-0.08,1.24-0.174s0.938-0.15,1.158-0.168
		c0.332-0.023,0.57,0.002,0.714,0.077l1.021-0.319c0.127,0.208,0.548,0.257,1.262,0.15c0.828-0.127,1.341-0.165,1.539-0.115
		c0.245-0.072,0.45-0.115,0.616-0.127c0.14-0.011,0.287,0.004,0.441,0.041c0.155,0.037,0.275,0.053,0.358,0.045
		c0.167-0.012,0.385-0.081,0.652-0.21c4.437-0.255,7.62-0.519,9.548-0.79c2.612-0.086,4.499-0.174,5.661-0.26
		c0.438-0.033,0.868-0.07,1.291-0.112c0.349,0.095,0.687,0.122,1.013,0.072c0.11-0.108,0.201-0.179,0.276-0.215
		c0.047-0.005,0.093-0.011,0.14-0.017c0.049,0.024,0.115,0.086,0.199,0.185c0.111,0.138,0.223,0.229,0.33,0.276
		c0.068,0.211,0.106,0.389,0.118,0.532c0.009,0.125-0.004,0.29-0.04,0.491c0.137,0.242,0.224,0.57,0.256,0.983
		c0.014,0.198,0.02,0.526,0.012,0.989c-0.009,0.461-0.005,0.799,0.012,1.014c0.025,0.324,0.08,0.59,0.166,0.803
		c-0.117,0.297-0.16,0.607-0.136,0.933c0.018,0.214,0.089,0.533,0.216,0.958c0.128,0.424,0.199,0.744,0.217,0.96
		c0.014,0.196-0.002,0.499-0.047,0.911c-0.047,0.408-0.059,0.75-0.038,1.018c0.057,0.756,0.236,1.512,0.533,2.266
		c-0.028,0.057-0.067,0.113-0.113,0.172c-0.05,0.057-0.099,0.078-0.152,0.064c-0.018,0.2-0.02,0.399-0.004,0.596
		c0.018,0.234,0.069,0.556,0.15,0.965c0.083,0.41,0.133,0.731,0.15,0.964c0.023,0.3,0.013,0.593-0.031,0.88
		c-0.087,0.018-0.172,0.033-0.266,0.059c-0.104-0.037-0.357-0.035-0.767,0.008c-0.339,0.025-0.564-0.027-0.674-0.161l0.016,0.177
		c0.021,0.075,0.001,0.125-0.053,0.152c-1.94,0.08-3.424,0.171-4.453,0.27c-0.166,0.055-0.348,0.092-0.546,0.106
		c-0.155,0.011-0.386,0.009-0.692-0.007c-0.307-0.012-0.531-0.016-0.672-0.006c-0.311,0.023-0.574,0.108-0.793,0.258l-0.178-0.136
		c-0.076-0.08-0.145-0.119-0.202-0.114c-0.041,0.002-0.101,0.059-0.177,0.168c-0.079,0.108-0.166,0.156-0.265,0.142
		c-0.064-0.081-0.09-0.129-0.076-0.142c-2.327,0.155-4.1,0.289-5.336,0.398c-0.188-0.078-0.431-0.111-0.733-0.088
		c-0.07,0.005-0.344,0.043-0.82,0.111c-0.132-0.078-0.298-0.108-0.493-0.094c-0.143,0.01-0.352,0.053-0.63,0.128
		c-0.279,0.075-0.473,0.118-0.587,0.127c-0.167,0.013-0.29-0.021-0.367-0.104l-0.511,0.285c-0.072-0.214-0.289-0.279-0.651-0.197
		c-0.419,0.098-0.677,0.117-0.781,0.06c-0.124,0.063-0.228,0.098-0.31,0.104c-0.074,0.006-0.147-0.013-0.228-0.056
		c-0.083-0.044-0.146-0.063-0.188-0.06c-0.084,0.006-0.192,0.068-0.325,0.189c-2.258,0.092-3.876,0.238-4.853,0.445
		c-1.334-0.011-2.294,0.008-2.885,0.053c-0.695,0.053-1.347,0.153-1.962,0.295c-0.325-0.01-0.716,0.03-1.187,0.132
		c-0.132-0.032-0.47-0.024-1.013,0.028c-0.447,0.031-0.742-0.018-0.884-0.148l0.014,0.18c0.024,0.073,0,0.125-0.073,0.151
		c-2.567,0.126-4.531,0.247-5.896,0.369c-0.22,0.062-1.939,0.114-2.2,0.134c-0.208,0.014-0.511,0.018-0.917,0.009
		c-0.402-0.005-0.699-0.003-0.887,0.012c-0.41,0.028-0.763,0.12-1.053,0.272l-0.235-0.13c-0.098-0.079-0.188-0.118-0.262-0.11
		c-0.056,0.002-0.136,0.061-0.24,0.172c-0.105,0.111-0.225,0.161-0.355,0.148c-0.081-0.08-0.112-0.127-0.095-0.141
		c-3.292,0.223-7.099,0.33-8.742,0.475c-0.458,0.186-0.672,0.447-0.647,0.783c0.009,0.117,0.054,0.295,0.136,0.527
		c0.083,0.233,0.13,0.404,0.137,0.514c0.009,0.107,0.015,0.206,0.021,0.292c0.229,0.288,0.705,0.405,1.434,0.353
		c0.094-0.008,0.928-0.029,1.561-0.108c0.172,0.075,0.39,0.103,0.65,0.082c0.188-0.013,0.465-0.06,0.834-0.143
		c0.369-0.082,0.628-0.128,0.777-0.14c0.224-0.017,0.386,0.016,0.484,0.096l0.682-0.297c0.093,0.213,1.242,0.324,1.723,0.234
		c0.556-0.106,0.899-0.133,1.036-0.076c0.165-0.066,0.302-0.105,0.412-0.113c0.094-0.006,0.192,0.012,0.3,0.053
		c0.107,0.04,0.189,0.059,0.243,0.056c0.113-0.009,0.259-0.073,0.438-0.198c2.988-0.144,6.608-0.342,7.903-0.568
		c1.763-0.022,3.034-0.063,3.816-0.119c0.91-0.068,1.768-0.178,2.575-0.33c0.237,0.006,0.515-0.029,0.845-0.117
		c0.103,0.037,0.356,0.033,0.765-0.008c0.339-0.027,0.563,0.027,0.674,0.162l-0.015-0.18c-0.02-0.074-0.001-0.125,0.055-0.15
		c1.938-0.08,3.423-0.17,4.452-0.27c0.166-0.057,0.347-0.092,0.545-0.105c0.156-0.012,0.387-0.012,0.694,0.004
		c0.304,0.016,0.528,0.018,0.669,0.006c0.031-0.001,0.06-0.008,0.091-0.011c0.027-0.014,0.055-0.027,0.083-0.04
		c0.162-0.08,0.318-0.27,0.476-0.316c0.188-0.059,0.419,0.026,0.617-0.014c0.001-0.012,0.005-0.023,0.002-0.039
		c-0.104-0.068-0.185-0.096-0.241-0.081c-0.015-0.02,0.06-0.069,0.224-0.147c-0.331-0.052-0.428-0.299-0.29-0.746
		c0.015,0.021,0.065,0.114,0.149,0.283c0.054,0.127,0.13,0.215,0.232,0.262l0.279-0.235c0.034,0.063,0.053,0.111,0.055,0.144
		c0.005,0.076-0.053,0.14-0.177,0.193c-0.124,0.053-0.205,0.104-0.245,0.148l0.18,0.117l0.159-0.143l0.07,0.077
		c-0.071-0.003-0.142,0.032-0.21,0.101c0.107-0.055,0.203-0.117,0.356-0.131c0.173-0.018,0.069-0.082,0.215-0.006
		c0.062,0.031,0.145,0.143,0.191,0.194c0.062,0.065,0.116,0.12,0.171,0.168c1.985-0.135,3.531-0.251,4.64-0.351
		c0.189,0.078,0.431,0.111,0.733,0.089c0.07-0.006,0.344-0.043,0.82-0.111c0.133,0.077,0.299,0.106,0.496,0.093
		c0.141-0.011,0.35-0.053,0.627-0.129c0.278-0.074,0.473-0.117,0.586-0.125c0.168-0.013,0.29,0.021,0.369,0.104l0.508-0.285
		c0.073,0.215,0.291,0.279,0.652,0.197c0.418-0.098,0.679-0.116,0.782-0.059c0.124-0.063,0.229-0.1,0.312-0.106
		c0.071-0.005,0.146,0.014,0.227,0.057c0.081,0.044,0.144,0.063,0.186,0.06c0.084-0.006,0.193-0.068,0.325-0.188
		c2.26-0.094,3.878-0.242,4.853-0.447c0.543,0.006,1.021,0.004,1.44-0.002c0.174,0.201,0.327,0.303,0.456,0.293
		c0.102-0.008,0.211-0.063,0.323-0.162c0.181-0.084,0.401-0.135,0.656-0.154c0.222-0.016,0.61-0.006,1.164,0.037
		c0.552,0.041,0.955,0.051,1.213,0.031c0.938-0.068,1.574-0.523,1.904-1.362C170.661,47.275,170.62,47.078,170.52,46.887
		 M85.896,34.043c-0.03-0.043-0.029-0.092,0.011-0.148c0.039-0.057,0.085-0.088,0.144-0.092c0.028-0.002,0.053,0.012,0.069,0.045
		C86.067,33.915,85.995,33.979,85.896,34.043 M86.486,33.868c0.145-0.011,0.221-0.032,0.235-0.066l0.122,0.216L86.486,33.868z
		 M92.972,35.094l-0.121-0.217l0.354,0.152C93.062,35.038,92.985,35.061,92.972,35.094 M93.774,35.002
		c-0.037,0.057-0.086,0.088-0.143,0.09c-0.027,0.003-0.051-0.012-0.066-0.043c0.052-0.068,0.125-0.133,0.219-0.193
		C93.817,34.896,93.813,34.943,93.774,35.002 M95.881,32.982c-0.098-0.036-0.148-0.014-0.159,0.061
		c-0.043,0.002-0.087,0.002-0.13,0.008c0.01-0.011,0.018-0.02,0.025-0.031c0.098-0.137,0.173-0.207,0.229-0.211
		c0.072-0.006,0.159,0.035,0.265,0.125C96.076,33.012,95.998,33.027,95.881,32.982 M104.445,34.118
		c-0.007-0.063,0.025-0.104,0.097-0.121l0.016,0.226C104.486,34.217,104.448,34.184,104.445,34.118 M108.994,32.344l-0.015-0.227
		c0.139,0.002,0.212,0.033,0.217,0.098C109.199,32.279,109.132,32.322,108.994,32.344 M130.579,30.722
		c-0.061-0.04-0.05-0.089,0.028-0.147c0.081-0.061,0.176-0.096,0.288-0.102c0.055-0.006,0.099,0.008,0.13,0.037
		C130.918,30.584,130.77,30.652,130.579,30.722 M131.734,30.507c0.278-0.021,0.429-0.05,0.456-0.083l0.224,0.211L131.734,30.507z
		 M140.715,31.522l-0.223-0.208l0.681,0.127C140.894,31.461,140.744,31.488,140.715,31.522 M142.297,31.373
		c-0.079,0.06-0.173,0.094-0.286,0.102c-0.056,0.004-0.101-0.009-0.129-0.039c0.104-0.072,0.254-0.141,0.444-0.211
		C142.386,31.264,142.375,31.314,142.297,31.373 M116.529,51.775l-0.156-0.217l0.463,0.146
		C116.648,51.72,116.547,51.742,116.529,51.775 M117.594,51.665c-0.053,0.06-0.117,0.091-0.19,0.097
		c-0.038,0.003-0.067-0.013-0.087-0.043c0.069-0.07,0.167-0.139,0.295-0.201C117.65,51.559,117.646,51.607,117.594,51.665
		 M121.294,49.629c-0.15-0.043-0.226-0.004-0.215,0.113c0.136,0.068,0.242,0.094,0.313,0.076c0.022,0.021-0.077,0.07-0.299,0.153
		c0.439,0.044,0.558,0.29,0.366,0.74c-0.02-0.021-0.083-0.113-0.19-0.28c-0.063-0.126-0.166-0.211-0.301-0.256l-0.377,0.242
		c-0.041-0.063-0.064-0.111-0.066-0.145c-0.006-0.074,0.074-0.141,0.24-0.195c0.164-0.057,0.273-0.108,0.324-0.156l-0.232-0.113
		l-0.214,0.146l-0.091-0.075c0.133,0.001,0.262-0.068,0.395-0.207c0.131-0.142,0.232-0.214,0.308-0.222
		c0.095-0.006,0.209,0.035,0.349,0.123C121.554,49.653,121.449,49.672,121.294,49.629 M134.066,50.576
		c-0.006-0.064,0.039-0.105,0.13-0.122l0.016,0.225C134.121,50.678,134.071,50.642,134.066,50.576 M137.428,48.877l-0.019-0.228
		c0.072,0.005,0.11,0.042,0.114,0.106C137.528,48.821,137.496,48.861,137.428,48.877 M148.182,48.02
		c-0.031-0.041-0.028-0.09,0.012-0.148c0.036-0.058,0.084-0.088,0.143-0.092c0.026-0.002,0.05,0.014,0.064,0.045
		C148.351,47.893,148.277,47.957,148.182,48.02 M148.765,47.846c0.142-0.012,0.219-0.033,0.229-0.066l0.125,0.219L148.765,47.846z
		 M155.145,49.095l-0.122-0.218l0.354,0.152C155.233,49.042,155.158,49.063,155.145,49.095 M155.947,49.004
		c-0.038,0.057-0.084,0.087-0.143,0.092c-0.027,0.002-0.05-0.012-0.066-0.045c0.053-0.067,0.125-0.133,0.222-0.195
		C155.989,48.897,155.988,48.947,155.947,49.004 M158.243,46.967c-0.058-0.004-0.117-0.003-0.178,0.003
		c-0.005-0.001-0.009-0.002-0.013-0.003c-0.084-0.032-0.133-0.021-0.152,0.029c-0.047,0.012-0.092,0.025-0.139,0.039
		c0.009-0.01,0.019-0.02,0.026-0.033c0.097-0.137,0.174-0.208,0.229-0.212c0.072-0.006,0.159,0.037,0.267,0.127
		C158.274,46.938,158.26,46.955,158.243,46.967"/>
	<path fill="#FFFFFF" d="M176.139,32.229c-0.012-0.052-0.028-0.094-0.043-0.14c-0.004,0.001-0.01,0-0.011,0.001
		c-0.027,0.005-0.052,0.02-0.082,0.009c0.014-0.01,0.033-0.016,0.042-0.027c0.013-0.014,0.018-0.049,0.026-0.064
		c-0.091-0.229-0.228-0.369-0.434-0.447v-0.032c0.309-0.093,0.521-0.301,0.555-0.567c-0.005,0-0.009,0.002-0.014,0.002
		c-0.028,0.006-0.058,0.002-0.085,0.002c-0.008,0-0.032,0.006-0.04-0.001c-0.007-0.006-0.002-0.044,0.003-0.051
		c0.006-0.013,0.049-0.032,0.06-0.04c0.026-0.016,0.056-0.027,0.084-0.041c-0.018-0.237-0.122-0.432-0.261-0.539
		c-0.202-0.117-0.435-0.201-0.953-0.201c-0.45,0-0.801,0.034-1.051,0.084v1.73c0.051,0.06,0.104,0.115,0.141,0.184
		c0.016,0.031,0.008,0.041-0.014,0.063c-0.027,0.025-0.02,0.061-0.027,0.098c-0.006,0.027,0.01,0.078-0.013,0.094
		c-0.009,0.008-0.031,0.013-0.042,0.019c-0.016,0.007-0.029,0.017-0.045,0.024v0.526h0.301c0.004,0.005,0.014,0.005,0.018,0.009
		c0.016,0.018,0.015,0.029,0.041,0.033c0.006,0.001,0.025,0.002,0.033,0c0.011-0.004,0.013-0.014,0.021-0.02
		c0.017-0.01,0.052-0.002,0.072-0.002c0.037,0,0.064-0.003,0.086-0.021h0.063v-1.038c0.004-0.004,0.008-0.008,0.011-0.013
		c0.014-0.009,0.03-0.013,0.044-0.021c0.013-0.008,0.023-0.017,0.039-0.021c0.008-0.004,0.015-0.006,0.021-0.009h0.185
		c0.351,0,0.518,0.134,0.568,0.435c0.083,0.317,0.133,0.567,0.216,0.667h0.596c0.002-0.001,0.002-0.003,0.002-0.003
		c0.021-0.037,0.029-0.068,0.032-0.11C176.239,32.69,176.197,32.523,176.139,32.229 M174.887,31.361h-0.233
		c-0.006-0.007-0.007-0.014-0.013-0.025c-0.005-0.011-0.018-0.03-0.029-0.034c-0.006-0.001-0.016,0-0.025,0.001v-0.088
		c-0.022-0.01-0.046-0.006-0.07-0.016c-0.021-0.008-0.038-0.016-0.031-0.045c0.004-0.018,0.007-0.014,0.021-0.02
		c0.01-0.006,0.022-0.017,0.031-0.02c0.005-0.002,0.009,0,0.014,0c-0.002-0.011,0.004-0.016,0.006-0.025
		c0.003-0.01,0-0.019,0.003-0.029c0.001-0.023,0.014-0.025,0.026-0.043V30.9c-0.021-0.018-0.008-0.032-0.018-0.062
		c-0.004-0.021-0.022-0.04-0.028-0.063c-0.005-0.022-0.004-0.051-0.003-0.073c0.002-0.029,0.02-0.049,0.031-0.073
		c0.01-0.018,0.01-0.036,0.018-0.052v-0.002l0,0c0.003-0.002,0.003-0.008,0.006-0.011c0.023-0.022,0.062-0.014,0.096-0.005
		c0.066-0.01,0.145-0.018,0.249-0.018c0.122,0,0.219,0.02,0.301,0.049c0.007-0.01,0.008-0.02,0.017-0.029
		c0.015-0.02,0.016-0.027,0.042-0.028c0.005-0.001,0.024-0.005,0.029,0.002c0.009,0.009,0.002,0.05,0.002,0.062v0.035
		c0.126,0.073,0.194,0.185,0.194,0.328C175.521,31.244,175.237,31.361,174.887,31.361"/>
	<path fill="#FFFFFF" d="M177.635,31.545c-0.113,0-0.142,0.017-0.141-0.105c0.002-0.188,0.211-0.228,0.273-0.387
		c0.002-0.004,0.002-0.01,0.003-0.013c-0.209-1.309-1.337-2.3-2.767-2.3c-0.434,0-0.843,0.096-1.209,0.264
		c0,0.037-0.006,0.07-0.043,0.102c-0.092,0.081-0.205,0.146-0.3,0.229c-0.066,0.059-0.116,0.078-0.192,0.037
		c-0.012-0.006-0.021-0.016-0.03-0.025c-0.083,0.064-0.163,0.135-0.239,0.209c-0.007,0.041-0.01,0.083-0.031,0.125
		c-0.059,0.115-0.115,0.203-0.221,0.281c-0.037,0.026-0.099,0.049-0.134,0.077c-0.004,0.003-0.004,0.008-0.008,0.011
		c-0.009,0.014-0.018,0.027-0.026,0.041c-0.009,0.033-0.002,0.067-0.014,0.111c-0.019,0.002-0.039,0.009-0.058,0.014
		c-0.201,0.377-0.315,0.807-0.315,1.264c0,0.168,0.017,0.331,0.045,0.489c0.052,0,0.104,0,0.157,0
		c0.064,0.001,0.097,0.001,0.148-0.026c0.067-0.033,0.097-0.034,0.17-0.043c0.074-0.009,0.139-0.041,0.216-0.038
		c-0.021-0.124-0.037-0.251-0.037-0.382c0-0.561,0.203-1.068,0.534-1.456c0.007-0.015,0.017-0.028,0.017-0.046
		c0.001-0.031-0.002-0.031,0.031-0.031c0.002,0,0.009,0,0.014,0c0.098-0.105,0.207-0.2,0.325-0.283
		c0.01-0.016,0.016-0.027,0.031-0.04c0.018-0.015,0.04-0.027,0.059-0.038c0.02-0.01,0.041-0.009,0.063-0.008
		c0.306-0.176,0.657-0.285,1.048-0.285c0.129,0,0.251,0.018,0.372,0.037c0.028-0.01,0.066-0.029,0.096-0.012
		c0.006,0.002,0.009,0.012,0.016,0.018c0.008,0.004,0.018,0,0.026,0.003c0.019,0.008,0.036,0.024,0.055,0.033
		c0.026,0.011,0.06,0.019,0.086,0.032c0.309,0.101,0.581,0.265,0.804,0.486c0.015,0.008,0.031,0.015,0.044,0.027
		c0.014,0.014,0.029,0.02,0.043,0.031c0.014,0.014,0.018,0.029,0.03,0.043c0.012,0.01,0.022,0.02,0.032,0.031
		c0.014,0.016,0.017,0.03,0.023,0.049c0.005,0.015,0.012,0.027,0.018,0.041c0.123,0.164,0.23,0.343,0.307,0.541
		c0.009,0.02,0.014,0.04,0.026,0.059c0.024,0.037,0.065,0.062,0.101,0.09c0.011,0.008,0.009,0.012,0.022,0.018
		c0.01,0.005,0.014,0.001,0.024,0.008c0.018,0.012,0.018,0.025,0.018,0.045s0.005,0.044,0,0.063
		c-0.004,0.024-0.02,0.042-0.031,0.063c-0.012,0.024-0.011,0.052-0.019,0.077c-0.008,0.026-0.011,0.043-0.013,0.07
		c0,0.008-0.004,0.016-0.006,0.022c0.015,0.108,0.029,0.216,0.029,0.327c0,1.201-0.886,2.171-2.086,2.171
		c-1.082,0-1.904-0.739-2.095-1.741c-0.018,0.004-0.035,0.008-0.052,0.015c-0.104,0.045-0.204,0.099-0.312,0.136
		c-0.099,0.033-0.198,0.053-0.296,0.079c0.037,0.146,0.086,0.286,0.146,0.423c0.021,0.012,0.045,0.023,0.068,0.033
		c0.049,0.021,0.102,0.02,0.15,0.041c0.031,0.016,0.049,0.031,0.075,0.052c0.036,0.028,0.044,0.021,0.05,0.073
		c0.01,0.078-0.023,0.153,0.031,0.221c0.038,0.052,0.091,0.053,0.137,0.086c0.041,0.03,0.076,0.078,0.113,0.113
		c0.085,0.084,0.11,0.252,0.217,0.307c0.061,0.029,0.104,0.055,0.156,0.094c0.048,0.035,0.1,0.035,0.139,0.086
		c0.04,0.049,0.038,0.124,0.034,0.193c0.417,0.236,0.899,0.374,1.42,0.374c0.529,0,1.016-0.138,1.432-0.376
		c0.001-0.012-0.002-0.027,0.001-0.038c0.014-0.104,0.052-0.06,0.143-0.07c0.014-0.001,0.027-0.003,0.042-0.007
		c0.021-0.015,0.039-0.029,0.059-0.044c0.004-0.012,0.007-0.024,0.003-0.042c0.007,0.01,0.016,0.016,0.024,0.023
		c0.658-0.49,1.08-1.264,1.099-2.154C177.749,31.542,177.69,31.545,177.635,31.545"/>
</g>
</svg>
